<svg width="168" height="58" viewBox="0 0 168 58" fill="none" xmlns="http://www.w3.org/2000/svg">
<path d="M20.1037 6.72754C19.1514 10.784 21.0175 14.2739 23.2298 16.0355C23.5425 14.7929 24.1966 10.2127 20.1037 6.72754Z" fill="#A4D3D8"/>
<path d="M38.4856 6.72754C39.4378 10.784 37.5718 14.2739 35.3642 16.0355C35.042 14.7929 34.3879 10.2127 38.4856 6.72754Z" fill="#A4D3D8"/>
<path d="M33.5702 4.23264C33.5702 6.57035 31.6561 8.46528 29.2946 8.46528C26.9331 8.46528 25.0142 6.57035 25.0142 4.23264C25.0142 1.89493 26.9283 0 29.2946 0C31.6561 0 33.5702 1.89493 33.5702 4.23264Z" fill="#74B65F"/>
<path d="M37.5909 2.41867C37.3167 1.52357 36.6097 0.995089 35.7921 1.09507C34.9264 1.19982 34.3926 1.91399 34.6138 3.03761C34.8302 4.13743 34.7773 5.20868 34.3685 6.16091C33.498 8.19391 31.68 9.65081 29.2945 9.65081C26.909 9.65081 25.0862 8.19391 24.2205 6.16091C23.8117 5.20868 23.7588 4.13267 23.9752 3.03761C24.1965 1.91399 23.6626 1.19982 22.7969 1.09507C21.9793 0.995089 21.2771 1.52834 20.9982 2.41867C20.3777 4.43262 21.1713 6.39896 22.2582 7.97966C23.0278 9.09376 25.2401 12.3742 23.6241 17.2258C25.2449 18.3065 27.1928 18.9398 29.2945 18.9398C31.3914 18.9398 33.3441 18.3065 34.9649 17.2258C33.3489 12.3742 35.5613 9.09376 36.3308 7.97966C37.4225 6.40373 38.2161 4.43262 37.5909 2.41867Z" fill="#5FB8C2"/>
<path d="M6.7959 38.0937C10.8936 39.0364 14.4189 37.1891 16.1984 35.0038C14.9383 34.6895 10.3164 34.042 6.7959 38.0937Z" fill="#A4D3D8"/>
<path d="M6.7959 19.9014C10.8936 18.9587 14.4189 20.8061 16.1984 22.9914C14.9383 23.3056 10.3164 23.9532 6.7959 19.9014Z" fill="#A4D3D8"/>
<path d="M4.27563 24.7626C6.64189 24.7626 8.55607 26.6575 8.55607 29C8.55607 31.3377 6.64189 33.2326 4.27563 33.2326C1.91417 33.2326 0 31.3377 0 29C0 26.6575 1.91417 24.7626 4.27563 24.7626Z" fill="#74B65F"/>
<path d="M2.44313 20.7823C1.54376 21.0537 1.0051 21.7536 1.1061 22.563C1.2119 23.42 1.93333 23.9437 3.06355 23.7295C4.17454 23.5152 5.25668 23.5676 6.21857 23.9723C8.27222 24.8341 9.74392 26.6385 9.74392 28.9953C9.74392 31.3568 8.27222 33.1565 6.21857 34.0183C5.25668 34.423 4.17454 34.4753 3.06355 34.2611C1.92852 34.0421 1.20709 34.5706 1.1061 35.4276C1.0051 36.2369 1.54376 36.9321 2.44313 37.2082C4.47754 37.8272 6.46386 37.0368 8.0558 35.9608C9.18121 35.199 12.4949 33.0089 17.3958 34.6086C18.4876 33.0041 19.1272 31.0759 19.1272 28.9953C19.1272 26.9147 18.4876 24.9864 17.3958 23.3819C12.4949 24.9817 9.1764 22.7915 8.0558 22.0298C6.46867 20.9537 4.47754 20.1682 2.44313 20.7823Z" fill="#5FB8C2"/>
<path d="M38.4856 51.2678C39.4378 47.2114 37.5718 43.7215 35.3642 41.9598C35.042 43.2073 34.3879 47.7875 38.4856 51.2678Z" fill="#A4D3D8"/>
<path d="M20.1037 51.2678C19.1514 47.2114 21.0175 43.7215 23.2298 41.9598C23.5425 43.2073 24.1966 47.7875 20.1037 51.2678Z" fill="#A4D3D8"/>
<path d="M25.0142 53.7627C25.0142 51.425 26.9283 49.53 29.2946 49.53C31.6561 49.53 33.575 51.425 33.575 53.7627C33.575 56.1004 31.6609 58.0001 29.2946 58.0001C26.9283 58.0001 25.0142 56.1004 25.0142 53.7627Z" fill="#74B65F"/>
<path d="M20.9936 55.5766C21.2725 56.4717 21.9747 57.0002 22.7923 56.9002C23.658 56.7955 24.1919 56.0813 23.9707 54.9577C23.7542 53.8579 23.8071 52.7866 24.2159 51.8344C25.0865 49.8014 26.9093 48.3445 29.2899 48.3445C31.6754 48.3445 33.4934 49.8014 34.3639 51.8344C34.7728 52.7866 34.8257 53.8626 34.6092 54.9577C34.388 56.0813 34.9219 56.7955 35.7876 56.9002C36.6052 57.0002 37.3122 56.467 37.5863 55.5766C38.2115 53.5627 37.4132 51.5963 36.3214 50.0204C35.5519 48.9063 33.3395 45.6259 34.9555 40.7743C33.3347 39.6935 31.3869 39.0651 29.2851 39.0603C27.1834 39.0603 25.2356 39.6935 23.6148 40.7743C25.2307 45.6307 23.0184 48.9063 22.2489 50.0204C21.1667 51.5963 20.3732 53.5675 20.9936 55.5766Z" fill="#5FB8C2"/>
<path d="M51.7885 19.9014C47.6908 18.9587 44.1655 20.8061 42.386 22.9914C43.6461 23.3056 48.2728 23.9532 51.7885 19.9014Z" fill="#A4D3D8"/>
<path d="M51.7885 38.0937C47.6908 39.0364 44.1655 37.1891 42.386 35.0038C43.6461 34.6895 48.2728 34.042 51.7885 38.0937Z" fill="#A4D3D8"/>
<path d="M54.3088 33.2326C51.9474 33.2326 50.0332 31.3377 50.0332 29C50.0332 26.6623 51.9474 24.7626 54.3088 24.7626C56.6703 24.7626 58.5893 26.6575 58.5893 29C58.5893 31.3377 56.6703 33.2326 54.3088 33.2326Z" fill="#74B65F"/>
<path d="M56.1411 37.2129C57.0453 36.9368 57.5792 36.2416 57.4782 35.4322C57.3724 34.5752 56.6509 34.0467 55.5159 34.2658C54.4049 34.48 53.3228 34.4276 52.3609 34.0229C50.3072 33.1612 48.8355 31.3615 48.8355 29C48.8355 26.6384 50.3072 24.834 52.3609 23.977C53.3228 23.5723 54.4097 23.5199 55.5159 23.7342C56.6509 23.9532 57.3724 23.4247 57.4782 22.5677C57.5792 21.7583 57.0405 21.0584 56.1411 20.787C54.1067 20.1681 52.1204 20.9584 50.5237 22.0344C49.3982 22.7962 46.0845 24.9863 41.1836 23.3866C40.0919 24.9911 39.457 26.9193 39.457 29C39.457 31.0806 40.0919 33.0088 41.1836 34.6133C46.0845 33.0136 49.3982 35.2037 50.5237 35.9655C52.1204 37.0463 54.1115 37.8318 56.1411 37.2129Z" fill="#5FB8C2"/>
<path d="M13.7646 7.61302C15.4335 9.26513 15.4335 11.9456 13.7646 13.6025C12.0958 15.2546 9.38801 15.2546 7.71431 13.6025C6.04542 11.9504 6.04542 9.26989 7.71431 7.61302C9.38801 5.95614 12.0958 5.95614 13.7646 7.61302Z" fill="#5FB8C2"/>
<path d="M16.6359 5.44187C15.5249 6.63691 16.2896 8.51279 16.2175 10.522C16.1886 11.3361 16.0395 13.0168 14.6063 14.4356C13.1731 15.8544 11.4753 16.002 10.6529 16.0306C8.62329 16.0973 6.72836 15.345 5.52118 16.4401C4.87671 17.0257 4.90556 18.0398 5.52118 18.6492C5.92517 19.0492 6.38688 19.1349 7.01212 19.0634C8.27701 18.9206 9.81604 18.6635 12.4035 19.53C15.6019 20.6013 17.3958 23.3865 17.3958 23.3865C19.4206 22.7247 20.5508 21.6821 21.2338 21.0012C21.9167 20.3251 22.9459 19.2301 23.6144 17.2256C23.6144 17.2256 20.8249 15.4259 19.7476 12.2598C18.8771 9.69831 19.132 8.17475 19.2763 6.92258C19.3484 6.30363 19.2667 5.84656 18.8627 5.44187C18.2519 4.83244 17.2275 4.80864 16.6359 5.44187Z" fill="#74B65F"/>
<path d="M7.69033 44.369C9.35922 42.7169 12.067 42.7169 13.7407 44.369C15.4096 46.0211 15.4096 48.7016 13.7407 50.3585C12.0718 52.0106 9.36403 52.0106 7.69033 50.3585C6.01663 48.7063 6.01663 46.0258 7.69033 44.369Z" fill="#5FB8C2"/>
<path d="M5.49729 41.5266C6.70447 42.6216 8.5994 41.8694 10.629 41.936C11.4514 41.9646 13.1492 42.1122 14.5824 43.531C16.0156 44.9498 16.1647 46.6305 16.1936 47.4446C16.2609 49.4538 15.501 51.3297 16.6072 52.5247C17.1988 53.1627 18.2232 53.1342 18.8388 52.5247C19.2428 52.1248 19.3245 51.663 19.2572 51.044C19.1129 49.7919 18.8532 48.2683 19.7285 45.7068C20.8107 42.5407 23.6242 40.7648 23.6242 40.7648C22.9557 38.7603 21.8976 37.6367 21.2195 36.9606C20.5365 36.2846 19.4304 35.2657 17.4056 34.6039C17.4056 34.6039 15.5876 37.3606 12.3893 38.4318C9.80177 39.2983 8.26274 39.0412 6.99785 38.8984C6.37261 38.827 5.9109 38.9127 5.5021 39.3126C4.88167 39.9268 4.85763 40.9457 5.49729 41.5266Z" fill="#74B65F"/>
<path d="M44.8198 50.387C43.1509 48.7349 43.1509 46.0544 44.8198 44.3975C46.4887 42.7454 49.2012 42.7454 50.8701 44.3975C52.539 46.0496 52.539 48.7349 50.8701 50.387C49.2012 52.0391 46.4935 52.0391 44.8198 50.387Z" fill="#5FB8C2"/>
<path d="M41.9532 52.5533C43.0642 51.3583 42.2995 49.4824 42.3668 47.4732C42.3957 46.659 42.5448 44.9784 43.978 43.5596C45.4112 42.1407 47.109 41.9931 47.9314 41.9646C49.961 41.8979 51.8559 42.6502 53.0631 41.5551C53.7028 40.9695 53.6787 39.9554 53.0631 39.346C52.6591 38.946 52.1974 38.8651 51.5674 38.9365C50.3025 39.0793 48.7634 39.3364 46.1759 38.4699C42.9728 37.3987 41.1837 34.6134 41.1837 34.6134C39.1589 35.2752 38.0238 36.3226 37.3409 36.9987C36.658 37.6748 35.6287 38.7699 34.9602 40.7743C34.9602 40.7743 37.7449 42.574 38.827 45.7402C39.7024 48.3016 39.4426 49.8252 39.2984 51.0774C39.2262 51.6963 39.308 52.1534 39.7168 52.5581C40.3372 53.1675 41.3616 53.1913 41.9532 52.5533Z" fill="#74B65F"/>
<path d="M50.8987 13.6265C49.2298 15.2786 46.5172 15.2786 44.8483 13.6265C43.1795 11.9744 43.1795 9.2939 44.8483 7.63703C46.5172 5.98492 49.225 5.98492 50.8987 7.63703C52.5676 9.2939 52.5676 11.9697 50.8987 13.6265Z" fill="#5FB8C2"/>
<path d="M53.087 16.4688C51.8798 15.3738 49.9849 16.1213 47.9553 16.0546C47.1328 16.0261 45.4351 15.8832 44.0019 14.4596C42.5686 13.0408 42.4195 11.3649 42.3907 10.546C42.3233 8.53681 43.0832 6.66093 41.9771 5.46589C41.3855 4.8279 40.3611 4.85646 39.7455 5.46589C39.3415 5.86582 39.2597 6.32289 39.327 6.9466C39.4713 8.19877 39.731 9.72233 38.8557 12.2838C37.7736 15.45 34.9648 17.2259 34.9648 17.2259C35.6334 19.2303 36.6914 20.3539 37.3696 21.0252C38.0525 21.7013 39.1635 22.7202 41.1835 23.382C41.1835 23.382 43.0015 20.6253 46.1998 19.554C48.7873 18.6875 50.3263 18.9446 51.5912 19.0875C52.2164 19.1589 52.6782 19.0779 53.087 18.678C53.7074 18.0686 53.7314 17.0545 53.087 16.4688Z" fill="#74B65F"/>
<path d="M91.8996 20.5822C94.7997 20.5822 96.1416 19.0919 96.1416 19.0919V20.3251H99.7006V12.5597C99.7006 10.6885 99.21 9.25544 98.2481 8.30322C97.2526 7.31767 95.7184 6.81299 93.6936 6.81299C92.1209 6.81299 90.7117 7.09866 89.4756 7.50335C88.8889 7.6938 88.4993 8.24609 88.4993 8.85551C88.4993 9.76965 89.3554 10.4552 90.2548 10.2458C91.159 10.0363 92.1401 9.90772 93.1309 9.90772C95.0883 9.90772 96.1705 11.117 96.1705 12.7787C96.1705 12.7787 94.8575 12.255 92.722 12.255C89.2785 12.255 87.3018 13.7976 87.3018 16.4828V16.5352C87.297 19.33 89.6103 20.5822 91.8996 20.5822ZM90.856 16.3305C90.856 15.0783 91.8708 14.3594 93.6407 14.3594C95.3769 14.3594 96.2185 14.9021 96.2185 14.9021V15.2592C96.2185 17.0304 94.9296 18.1254 93.078 18.1254C91.7265 18.1254 90.856 17.4398 90.856 16.3828V16.3305Z" fill="black"/>
<path d="M73.3254 9.5507L81.6169 20.3299H81.7516H84.1226H85.3587V4.74196C85.3587 3.75641 84.5507 2.95654 83.5551 2.95654C82.5596 2.95654 81.7516 3.75641 81.7516 4.74196V14.6165L73.4167 3.78498C72.7386 2.90417 71.4978 2.71373 70.5743 3.31363C70.5455 3.32791 70.5214 3.34696 70.4926 3.36124C70.4782 3.37076 70.4637 3.37552 70.4493 3.38981C70.4204 3.41361 70.3964 3.44218 70.3675 3.46598C69.9732 3.7945 69.7183 4.27537 69.7183 4.8229V20.3299H73.3206V9.5507H73.3254Z" fill="black"/>
<path d="M152.74 20.5822C155.64 20.5822 156.977 19.0919 156.977 19.0919V20.3251H160.536V12.5597C160.536 10.6885 160.045 9.25544 159.083 8.30322C158.088 7.31767 156.554 6.81299 154.529 6.81299C152.951 6.81299 151.547 7.09866 150.311 7.50335C149.724 7.6938 149.335 8.24609 149.335 8.85551C149.335 9.76965 150.191 10.4552 151.09 10.2458C151.994 10.0363 152.97 9.90772 153.966 9.90772C155.928 9.90772 157.006 11.117 157.006 12.7787C157.006 12.7787 155.693 12.255 153.557 12.255C150.114 12.255 148.137 13.7976 148.137 16.4828V16.5352C148.137 19.33 150.45 20.5822 152.74 20.5822ZM151.696 16.3305C151.696 15.0783 152.711 14.3594 154.481 14.3594C156.217 14.3594 157.059 14.9021 157.059 14.9021V15.2592C157.059 17.0304 155.765 18.1254 153.918 18.1254C152.566 18.1254 151.696 17.4398 151.696 16.3828V16.3305Z" fill="black"/>
<path d="M102.894 16.6066C102.894 19.3537 104.145 20.5821 106.833 20.5821C107.973 20.5821 108.92 20.344 109.801 19.8394V16.9732C109.233 17.2493 108.627 17.3921 107.983 17.3921C107.074 17.3921 106.583 16.9303 106.583 15.9781V10.6742H109.805V7.58423H106.583V4.78469C106.583 3.77533 105.756 2.96118 104.741 2.96118C103.726 2.96118 102.899 3.77533 102.899 4.78469V7.58423H101.264V10.6742H102.899V16.6066H102.894Z" fill="black"/>
<path d="M132.16 13.6976V13.6452C132.16 9.81249 128.995 6.81299 124.955 6.81299C120.886 6.81299 117.698 9.8363 117.698 13.6976V13.7452C117.698 17.5779 120.862 20.5774 124.902 20.5774C128.971 20.5822 132.16 17.5588 132.16 13.6976ZM121.3 13.6976V13.6452C121.3 11.4789 122.815 9.90296 124.902 9.90296C126.951 9.90296 128.553 11.5693 128.553 13.6928V13.7404C128.553 15.9067 127.038 17.4827 124.95 17.4827C122.902 17.4874 121.3 15.821 121.3 13.6976Z" fill="black"/>
<path d="M113.941 6.97005C115.062 6.97005 115.966 6.07496 115.966 4.96561C115.966 3.85627 115.062 2.96118 113.941 2.96118C112.821 2.96118 111.912 3.85627 111.912 4.96561C111.917 6.07019 112.821 6.97005 113.941 6.97005Z" fill="black"/>
<path d="M115.745 10.0269C115.745 9.04132 114.937 8.24146 113.941 8.24146C112.946 8.24146 112.138 9.04132 112.138 10.0269V20.3299H115.74V10.0269H115.745Z" fill="black"/>
<path d="M142.582 20.3298H146.184V11.6408C146.184 8.61745 144.52 6.81299 141.731 6.81299C138.903 6.81299 137.71 8.59841 137.71 8.59841C137.71 7.61286 136.902 6.81299 135.906 6.81299C134.911 6.81299 134.103 7.61286 134.103 8.59841V20.3298H137.705V12.831C137.705 11.0551 138.609 10.0363 140.177 10.0363C141.726 10.0363 142.577 11.0266 142.577 12.831V20.3298H142.582Z" fill="black"/>
<path d="M166.48 4.74196C166.48 3.75641 165.672 2.95654 164.677 2.95654C163.681 2.95654 162.873 3.75641 162.873 4.74196V20.3299H166.475V4.74196H166.48Z" fill="black"/>
<path d="M115.928 30.5472C115.163 29.6426 114.095 28.8618 112.374 28.8618C109.671 28.8618 107.179 30.9281 107.179 34.6989V34.7418C107.179 38.5126 109.714 40.5789 112.374 40.5789C114.057 40.5789 115.139 39.7981 115.928 38.7459V40.3694H119.16V26.3717C119.16 25.4861 118.438 24.772 117.544 24.772C116.649 24.772 115.928 25.4861 115.928 26.3717V30.5472ZM115.971 34.7418C115.971 36.6176 114.716 37.8603 113.206 37.8603C111.696 37.8603 110.416 36.6176 110.416 34.7418V34.6989C110.416 32.804 111.696 31.5804 113.206 31.5804C114.716 31.5804 115.971 32.823 115.971 34.6989V34.7418Z" fill="black"/>
<path d="M91.082 40.3504H94.314V33.3182C94.314 30.7281 92.8904 29.1284 90.4472 29.1284C88.9611 29.1284 87.9559 29.4712 87.1094 30.0568V26.3717C87.1094 25.4861 86.388 24.772 85.4934 24.772C84.5989 24.772 83.8774 25.4861 83.8774 26.3717V40.3504H87.1094V34.3275C87.1094 32.8135 87.8934 32.0327 89.1294 32.0327C90.3606 32.0327 91.0869 32.8135 91.0869 34.3275V40.3504H91.082Z" fill="black"/>
<path d="M98.1376 24.7672C97.1324 24.7672 96.3196 25.5718 96.3196 26.5669C96.3196 27.562 97.1324 28.3666 98.1376 28.3666C99.1427 28.3666 99.9555 27.562 99.9555 26.5669C99.9555 25.5718 99.1427 24.7672 98.1376 24.7672Z" fill="black"/>
<path d="M98.1375 29.5093C97.2429 29.5093 96.5215 30.2234 96.5215 31.109V40.3503H99.7535V31.109C99.7535 30.2282 99.032 29.5093 98.1375 29.5093Z" fill="black"/>
<path d="M105.433 26.3669C105.433 25.4814 104.712 24.7672 103.817 24.7672C102.923 24.7672 102.201 25.4814 102.201 26.3669V40.3456H105.433V26.3669Z" fill="black"/>
<path d="M76.2303 27.8715C77.7742 27.8715 78.8178 28.3761 80.0106 29.4474C80.655 30.0806 81.6987 30.0806 82.3383 29.4426C82.9828 28.8046 82.9828 27.7667 82.3383 27.1287C80.9051 25.729 79.1593 24.772 76.2495 24.772C71.5074 24.772 68.1985 28.3333 68.1985 32.6754V32.7183C68.1985 37.108 71.5747 40.5789 76.1149 40.5789C79.0919 40.5789 80.857 39.5315 82.4442 37.8508L80.2847 35.6892C79.0727 36.7795 77.9906 37.4794 76.2255 37.4794C73.5803 37.4794 71.7479 35.2941 71.7479 32.6754V32.6326C71.7479 30.0092 73.6236 27.8715 76.2303 27.8715Z" fill="black"/>
<path d="M140.889 34.6942C140.889 31.3186 139.047 28.2334 135.036 28.2334C131.535 28.2334 129.091 31.0329 129.091 34.4276V34.4705C129.091 38.1127 131.761 40.579 135.372 40.579C137.546 40.579 139.162 39.7363 140.283 38.3603L138.33 36.6511C137.388 37.5176 136.464 37.8699 135.32 37.8699C133.795 37.8699 132.718 37.1129 132.381 35.5846H140.841C140.865 35.2703 140.889 34.9609 140.889 34.6942ZM132.323 33.5801C132.602 31.9804 133.564 30.9425 135.036 30.9425C136.532 30.9425 137.469 32.009 137.681 33.5801H132.323Z" fill="black"/>
<path d="M124.84 36.075C124.84 33.2754 126.186 31.7328 128.634 31.7328H128.726V28.3239C126.956 28.2715 125.782 29.0999 125.008 30.9282L124.835 31.3329V29.8284C124.835 28.9428 124.109 28.2286 123.219 28.2286C122.324 28.2286 121.603 28.9428 121.603 29.8284V40.3505H124.835V36.075H124.84Z" fill="black"/>
<path d="M153.466 40.3505V32.5565C153.466 29.8474 151.975 28.2286 149.474 28.2286C146.939 28.2286 145.867 29.8284 145.867 29.8284C145.867 28.9428 145.145 28.2286 144.251 28.2286C143.356 28.2286 142.635 28.9428 142.635 29.8284V40.3505H145.867V33.623C145.867 32.028 146.675 31.1139 148.084 31.1139C149.469 31.1139 150.234 32.0042 150.234 33.623V40.3457H153.466V40.3505Z" fill="black"/>
<path d="M154.519 29.914V31.6042C154.519 31.6042 154.971 31.6042 155.409 31.6042C157.717 31.6042 158.689 30.2854 158.689 28.319V24.772H155.216V28.2333H156.544C156.544 29.6855 155.972 29.914 154.519 29.914Z" fill="black"/>
<path d="M164.451 33.1421C163.176 32.7089 162.06 32.2661 162.06 31.6138V31.5709C162.06 31.1139 162.474 30.7663 163.292 30.7663C163.888 30.7663 164.778 31.0091 165.619 31.4043C166.23 31.6852 166.952 31.4852 167.293 30.9139C167.663 30.2902 167.437 29.4808 166.788 29.1523C165.696 28.6 164.441 28.2334 163.354 28.2334C160.983 28.2334 159.054 29.557 159.054 31.9233V31.9661C159.054 34.2229 160.92 35.1227 162.565 35.5989C163.859 35.9893 164.999 36.4082 164.999 37.1272V37.17C164.999 37.6938 164.561 38.0366 163.595 38.0366C162.498 38.0366 161.161 37.5604 159.886 36.6463L158.458 38.8174C160.016 40.0315 161.858 40.579 163.503 40.579C166.047 40.579 168 39.4078 168 36.8225V36.7796C168 34.6466 166.095 33.6849 164.451 33.1421Z" fill="black"/>
<path d="M76.1437 53.1816L73.3446 45.9114H70.5022V56.2906H72.2817V47.6682H72.3106L75.4944 56.2906H76.7978L79.9817 47.6682H80.0105V56.2906H81.7852V45.9114H78.9765L76.1437 53.1816Z" fill="black"/>
<path d="M89.1485 50.0726C88.8552 49.7488 88.5089 49.5013 88.0953 49.3346C87.6864 49.1632 87.2344 49.0775 86.739 49.0775C86.2051 49.0775 85.7001 49.1632 85.2288 49.3394C84.7527 49.5155 84.3438 49.7631 84.0024 50.0869C83.6561 50.4106 83.3819 50.7963 83.1799 51.2533C82.9779 51.7057 82.877 52.2151 82.877 52.7721C82.877 53.3292 82.9779 53.8339 83.1799 54.2909C83.3819 54.7432 83.6561 55.1337 84.0024 55.4574C84.3487 55.7812 84.7575 56.0288 85.2288 56.2049C85.7049 56.3811 86.2051 56.4668 86.739 56.4668C87.3017 56.4668 87.8403 56.3573 88.3502 56.143C88.8648 55.9288 89.3265 55.5669 89.7401 55.0575L88.4656 54.1053C88.2395 54.3814 87.975 54.6052 87.672 54.7861C87.369 54.967 86.9987 55.0575 86.5562 55.0575C86.0512 55.0575 85.6232 54.9099 85.2673 54.6195C84.9114 54.329 84.7046 53.9148 84.6468 53.3863H90.0671V52.9007C90.0671 52.2865 89.9854 51.739 89.8219 51.2676C89.668 50.7963 89.4371 50.3963 89.1485 50.0726ZM84.6517 52.0675C84.719 51.5581 84.9114 51.1534 85.2192 50.8487C85.5318 50.5439 85.9502 50.3963 86.4841 50.3963C87.0468 50.3963 87.4844 50.5439 87.8019 50.8439C88.1193 51.1438 88.278 51.5485 88.2924 52.0675H84.6517Z" fill="black"/>
<path d="M96.8196 50.1488H96.7763C96.6898 50.0298 96.5743 49.9108 96.4348 49.787C96.2954 49.6632 96.127 49.5489 95.9299 49.4442C95.7327 49.3347 95.5066 49.249 95.2469 49.1823C94.992 49.1157 94.6938 49.0823 94.3572 49.0823C93.8522 49.0823 93.3904 49.1776 92.9672 49.368C92.544 49.5585 92.1784 49.8203 91.8803 50.1536C91.5773 50.4869 91.3464 50.8773 91.1781 51.3248C91.0097 51.7724 90.928 52.258 90.928 52.777C90.928 53.2959 91.0097 53.7768 91.1636 54.2291C91.3224 54.6767 91.5532 55.0718 91.861 55.4003C92.1688 55.7336 92.5343 55.9955 92.9624 56.1859C93.3904 56.3764 93.881 56.4716 94.4341 56.4716C94.9391 56.4716 95.4056 56.3716 95.8433 56.1764C96.2761 55.9812 96.6224 55.667 96.8821 55.2385H96.911V56.2954H98.5943V45.2068H96.8148V50.1488H96.8196ZM96.7378 53.5626C96.6417 53.8149 96.507 54.0387 96.3242 54.2339C96.1415 54.4291 95.9202 54.5862 95.6653 54.7052C95.4104 54.8243 95.117 54.8814 94.79 54.8814C94.463 54.8814 94.1744 54.8243 93.9147 54.7052C93.6598 54.5862 93.4385 54.4291 93.2558 54.2339C93.073 54.0387 92.9335 53.8149 92.8422 53.5626C92.746 53.3102 92.7027 53.0436 92.7027 52.7722C92.7027 52.4961 92.7508 52.2342 92.8422 51.9819C92.9383 51.7295 93.073 51.5058 93.2558 51.3058C93.4385 51.1106 93.6598 50.9535 93.9147 50.8344C94.1696 50.7154 94.463 50.6583 94.79 50.6583C95.117 50.6583 95.4056 50.7154 95.6653 50.8344C95.9202 50.9535 96.1415 51.1106 96.3242 51.3058C96.507 51.501 96.6465 51.7248 96.7378 51.9819C96.834 52.2342 96.8773 52.5008 96.8773 52.7722C96.8773 53.0436 96.8292 53.3102 96.7378 53.5626Z" fill="black"/>
<path d="M101.947 49.2537H100.167V56.2906H101.947V49.2537Z" fill="black"/>
<path d="M105.366 51.3057C105.549 51.1105 105.77 50.9534 106.025 50.8344C106.28 50.7153 106.573 50.6582 106.9 50.6582C107.136 50.6582 107.367 50.7201 107.598 50.8487C107.824 50.9772 108.04 51.1486 108.247 51.3629L109.478 50.144C109.132 49.7726 108.728 49.5013 108.271 49.3299C107.809 49.1585 107.352 49.0728 106.9 49.0728C106.366 49.0728 105.861 49.1585 105.39 49.3346C104.914 49.5108 104.505 49.7584 104.164 50.0821C103.817 50.4059 103.543 50.7915 103.341 51.2486C103.139 51.7009 103.038 52.2103 103.038 52.7674C103.038 53.3244 103.139 53.8291 103.341 54.2862C103.543 54.7385 103.817 55.1289 104.164 55.4527C104.51 55.7764 104.919 56.024 105.39 56.2002C105.861 56.3763 106.366 56.462 106.9 56.462C107.059 56.462 107.247 56.443 107.463 56.4097C107.679 56.3763 107.906 56.3192 108.146 56.243C108.382 56.1668 108.617 56.0621 108.848 55.9335C109.079 55.805 109.286 55.6526 109.464 55.4812L108.281 54.2195C108.112 54.4338 107.91 54.6004 107.675 54.7099C107.439 54.8242 107.179 54.8766 106.905 54.8766C106.578 54.8766 106.29 54.8194 106.03 54.7004C105.775 54.5814 105.554 54.4243 105.371 54.2291C105.188 54.0338 105.049 53.8101 104.957 53.5577C104.861 53.3054 104.818 53.0388 104.818 52.7674C104.818 52.4912 104.866 52.2294 104.957 51.977C105.044 51.7247 105.183 51.5009 105.366 51.3057Z" fill="black"/>
<path d="M116.236 50.982C116.183 50.7487 116.091 50.5154 115.971 50.2868C115.846 50.0583 115.673 49.8536 115.447 49.6774C115.221 49.5013 114.932 49.3584 114.586 49.2442C114.24 49.1299 113.816 49.0775 113.311 49.0775C112.749 49.0775 112.205 49.1632 111.676 49.3394C111.147 49.5155 110.686 49.8012 110.291 50.2059L111.224 51.1296C111.46 50.9058 111.744 50.7249 112.071 50.5963C112.398 50.463 112.749 50.4011 113.124 50.4011C113.6 50.4011 113.99 50.5106 114.293 50.7296C114.6 50.9486 114.75 51.2771 114.75 51.7199V51.9104H114.307C114.009 51.9104 113.696 51.9199 113.36 51.9342C113.023 51.9485 112.691 51.9818 112.359 52.0342C112.027 52.0865 111.71 52.1675 111.402 52.277C111.094 52.3865 110.825 52.5293 110.594 52.7102C110.363 52.8912 110.176 53.1149 110.041 53.3863C109.902 53.6529 109.834 53.9815 109.834 54.3624C109.834 54.7147 109.906 55.0242 110.055 55.286C110.205 55.5479 110.397 55.7716 110.642 55.9478C110.883 56.124 111.162 56.2573 111.469 56.343C111.782 56.4287 112.099 56.4763 112.427 56.4763C112.903 56.4763 113.336 56.3858 113.73 56.2049C114.124 56.024 114.451 55.7336 114.706 55.3336H114.75V56.3001H116.346V52.2532C116.346 52.0865 116.341 51.8961 116.332 51.6723C116.322 51.4438 116.293 51.2153 116.236 50.982ZM114.644 53.5339C114.644 54.0338 114.499 54.4242 114.206 54.7147C113.913 55.0051 113.461 55.1479 112.85 55.1479C112.701 55.1479 112.552 55.1289 112.407 55.0956C112.258 55.0622 112.124 55.0051 112.008 54.9289C111.888 54.8528 111.792 54.7575 111.72 54.6433C111.647 54.529 111.609 54.3909 111.609 54.2243C111.609 53.9719 111.705 53.772 111.893 53.6291C112.08 53.4863 112.311 53.3816 112.58 53.3054C112.85 53.234 113.138 53.1864 113.446 53.1673C113.754 53.1483 114.028 53.1387 114.273 53.1387H114.644V53.5339Z" fill="black"/>
<path d="M119.698 45.2068H117.919V56.2907H119.698V45.2068Z" fill="black"/>
<path d="M130.967 54.5814C130.568 54.7814 130.154 54.8814 129.731 54.8814C129.187 54.8814 128.697 54.7814 128.259 54.5862C127.822 54.391 127.442 54.1243 127.124 53.7815C126.807 53.4387 126.562 53.034 126.393 52.5627C126.22 52.0913 126.133 51.5819 126.133 51.0248C126.133 50.5059 126.22 50.0203 126.393 49.5727C126.566 49.1252 126.812 48.73 127.124 48.3919C127.442 48.0539 127.817 47.792 128.259 47.6016C128.697 47.4112 129.187 47.3159 129.731 47.3159C130.096 47.3159 130.457 47.3826 130.818 47.5207C131.179 47.6587 131.549 47.9301 131.934 48.3396L133.386 47.2826C132.862 46.6875 132.299 46.2637 131.688 46.0161C131.082 45.7686 130.424 45.64 129.712 45.64C128.904 45.64 128.158 45.7686 127.485 46.0304C126.807 46.2875 126.225 46.6589 125.739 47.135C125.249 47.6159 124.869 48.192 124.59 48.8728C124.311 49.5537 124.176 50.3059 124.176 51.1391C124.176 51.9485 124.315 52.6865 124.59 53.353C124.864 54.0196 125.249 54.5862 125.739 55.0623C126.23 55.5384 126.812 55.905 127.485 56.1621C128.163 56.4192 128.904 56.5525 129.712 56.5525C130.481 56.5525 131.207 56.4049 131.89 56.1145C132.573 55.8193 133.151 55.3527 133.622 54.7052L132.083 53.6197C131.737 54.0624 131.366 54.3814 130.967 54.5814Z" fill="black"/>
<path d="M140.259 50.0726C139.966 49.7488 139.615 49.5013 139.206 49.3346C138.797 49.1632 138.345 49.0775 137.85 49.0775C137.316 49.0775 136.811 49.1632 136.339 49.3394C135.868 49.5155 135.454 49.7631 135.113 50.0869C134.767 50.4106 134.493 50.7963 134.291 51.2533C134.089 51.7057 133.988 52.2151 133.988 52.7721C133.988 53.3292 134.089 53.8339 134.291 54.2909C134.493 54.7432 134.767 55.1337 135.113 55.4574C135.459 55.7812 135.868 56.0288 136.339 56.2049C136.816 56.3811 137.316 56.4668 137.85 56.4668C138.412 56.4668 138.951 56.3573 139.461 56.143C139.975 55.9288 140.437 55.5669 140.851 55.0575L139.576 54.1053C139.35 54.3814 139.086 54.6052 138.783 54.7861C138.48 54.967 138.109 55.0575 137.667 55.0575C137.162 55.0575 136.734 54.9099 136.378 54.6195C136.022 54.329 135.815 53.9148 135.757 53.3863H141.178V52.9007C141.178 52.2865 141.096 51.739 140.932 51.2676C140.774 50.7963 140.548 50.3963 140.259 50.0726ZM135.762 52.0675C135.83 51.5581 136.022 51.1534 136.33 50.8487C136.642 50.5439 137.061 50.3963 137.595 50.3963C138.157 50.3963 138.595 50.5439 138.912 50.8439C139.23 51.1438 139.389 51.5485 139.403 52.0675H135.762Z" fill="black"/>
<path d="M148.18 49.9298C147.973 49.6774 147.704 49.4679 147.372 49.3156C147.04 49.1585 146.641 49.0823 146.165 49.0823C145.573 49.0823 145.102 49.2108 144.756 49.4727C144.41 49.7298 144.155 50.0345 143.986 50.3868H143.957V49.2584H142.269V56.2954H144.044V52.4532C144.044 52.2199 144.073 51.9961 144.131 51.7771C144.188 51.5628 144.284 51.3724 144.419 51.2057C144.554 51.0391 144.722 50.9058 144.924 50.8106C145.126 50.7153 145.376 50.663 145.67 50.663C145.977 50.663 146.218 50.7344 146.396 50.8772C146.574 51.0201 146.704 51.1962 146.79 51.4057C146.877 51.6152 146.925 51.839 146.944 52.0818C146.963 52.3198 146.973 52.5389 146.973 52.7341V56.2954H148.748V51.8533C148.748 51.4914 148.704 51.1438 148.613 50.8106C148.536 50.4725 148.387 50.1821 148.18 49.9298Z" fill="black"/>
<path d="M152.61 47.2159H150.83V49.2537H149.363V50.7487H150.83V53.972C150.83 54.3814 150.864 54.7433 150.926 55.0575C150.989 55.3717 151.109 55.6336 151.282 55.8431C151.455 56.0526 151.691 56.2097 151.994 56.3144C152.292 56.4144 152.682 56.4668 153.158 56.4668C153.365 56.4668 153.605 56.4478 153.875 56.4144C154.144 56.3811 154.375 56.3192 154.562 56.2335V54.7528C154.452 54.829 154.307 54.8861 154.12 54.9194C153.932 54.9528 153.759 54.9718 153.6 54.9718C153.206 54.9718 152.942 54.8671 152.807 54.6623C152.672 54.4576 152.605 54.1767 152.605 53.8244V50.7439H154.558V49.2489H152.605V47.2159H152.61Z" fill="black"/>
<path d="M161.44 50.0726C161.146 49.7488 160.795 49.5013 160.387 49.3346C159.978 49.1632 159.526 49.0775 159.03 49.0775C158.496 49.0775 157.991 49.1632 157.52 49.3394C157.044 49.5155 156.635 49.7631 156.294 50.0869C155.947 50.4106 155.673 50.7963 155.471 51.2533C155.269 51.7057 155.168 52.2151 155.168 52.7721C155.168 53.3292 155.269 53.8339 155.471 54.2909C155.673 54.7432 155.947 55.1337 156.294 55.4574C156.64 55.7812 157.049 56.0288 157.52 56.2049C157.996 56.3811 158.496 56.4668 159.03 56.4668C159.593 56.4668 160.132 56.3573 160.641 56.143C161.156 55.9288 161.618 55.5669 162.031 55.0575L160.757 54.1053C160.531 54.3814 160.266 54.6052 159.963 54.7861C159.66 54.967 159.29 55.0575 158.847 55.0575C158.342 55.0575 157.914 54.9099 157.559 54.6195C157.203 54.329 156.996 53.9148 156.938 53.3863H162.358V52.9007C162.358 52.2865 162.277 51.739 162.113 51.2676C161.959 50.7963 161.733 50.3963 161.44 50.0726ZM156.948 52.0675C157.015 51.5581 157.207 51.1534 157.515 50.8487C157.828 50.5439 158.246 50.3963 158.78 50.3963C159.343 50.3963 159.781 50.5439 160.098 50.8439C160.415 51.1438 160.574 51.5485 160.588 52.0675H156.948Z" fill="black"/>
<path d="M167.365 49.0775C166.894 49.0775 166.471 49.1918 166.105 49.4156C165.74 49.6393 165.456 49.9583 165.259 50.3678H165.23V49.2537H163.455V56.2906H165.23V52.5246C165.23 52.4293 165.254 52.2818 165.297 52.0865C165.34 51.8913 165.432 51.6961 165.562 51.5009C165.696 51.3057 165.889 51.1343 166.139 50.982C166.389 50.8296 166.726 50.7534 167.139 50.7534C167.279 50.7534 167.418 50.7677 167.562 50.7915C167.707 50.8153 167.851 50.8487 168 50.8867V49.187C167.889 49.1585 167.784 49.1346 167.683 49.1156C167.582 49.087 167.471 49.0775 167.365 49.0775Z" fill="black"/>
<path d="M101.057 45.7924C100.465 45.7924 99.9844 46.2685 99.9844 46.8541C99.9844 47.4397 100.465 47.9158 101.057 47.9158C101.648 47.9158 102.129 47.4397 102.129 46.8541C102.129 46.2685 101.648 45.7924 101.057 45.7924Z" fill="black"/>
</svg>
