<svg width="17" height="17" viewBox="0 0 17 17" fill="none" xmlns="http://www.w3.org/2000/svg">
<path d="M12.2049 8.53018C11.8783 8.37489 11.5449 8.24112 11.2058 8.12906C12.3042 7.30455 13.0161 5.99167 13.0161 4.51562C13.0161 2.02572 10.9904 0 8.50048 0C6.01054 0 3.98485 2.02572 3.98485 4.51562C3.98485 5.9933 4.69832 7.30748 5.79884 8.13181C4.79052 8.46378 3.8444 8.98032 3.01632 9.66145C1.49787 10.9104 0.44211 12.6526 0.0435732 14.567C-0.081337 15.1668 0.0683095 15.7829 0.454063 16.2573C0.837925 16.7293 1.40713 17 2.01567 17H10.1938C10.5606 17 10.8579 16.7027 10.8579 16.3359C10.8579 15.9692 10.5606 15.6719 10.1938 15.6719H2.01567C1.73218 15.6719 1.56116 15.5136 1.48446 15.4193C1.35201 15.2565 1.30074 15.0445 1.34381 14.8376C2.03294 11.5275 4.95269 9.10941 8.32443 9.02786C8.38284 9.03012 8.44151 9.03125 8.50048 9.03125C8.56001 9.03125 8.61928 9.03009 8.67825 9.0278C9.71153 9.05204 10.7053 9.28784 11.6348 9.72971C11.9661 9.88709 12.3622 9.74628 12.5196 9.41501C12.6771 9.08378 12.5362 8.68763 12.2049 8.53018ZM8.66244 7.69904C8.60855 7.69808 8.55456 7.69758 8.50048 7.69758C8.44689 7.69758 8.3933 7.69811 8.33977 7.69911C6.65654 7.61514 5.31298 6.21934 5.31298 4.51562C5.31298 2.75802 6.74287 1.32812 8.50048 1.32812C10.2581 1.32812 11.688 2.75802 11.688 4.51562C11.688 6.21891 10.3451 7.61444 8.66244 7.69904Z" fill="#00AAC4"/>
<path d="M16.3359 13.1816H14.5098V11.3555C14.5098 10.9887 14.2125 10.6914 13.8457 10.6914C13.4789 10.6914 13.1816 10.9887 13.1816 11.3555V13.1816H11.3555C10.9887 13.1816 10.6914 13.4789 10.6914 13.8457C10.6914 14.2125 10.9887 14.5098 11.3555 14.5098H13.1816V16.3359C13.1816 16.7027 13.4789 17 13.8457 17C14.2125 17 14.5098 16.7027 14.5098 16.3359V14.5098H16.3359C16.7027 14.5098 17 14.2125 17 13.8457C17 13.4789 16.7027 13.1816 16.3359 13.1816Z" fill="#00AAC4"/>
</svg>
