<svg width="18" height="18" viewBox="0 0 18 18" fill="none" xmlns="http://www.w3.org/2000/svg">
<path d="M8.9999 7.8001C10.1699 7.8001 11.0999 6.8701 11.0999 5.7001C11.0999 4.5301 10.1699 3.6001 8.9999 3.6001C7.8299 3.6001 6.8999 4.5301 6.8999 5.7001C6.8999 6.8701 7.8299 7.8001 8.9999 7.8001ZM8.9999 4.2001C9.8399 4.2001 10.4999 4.8601 10.4999 5.7001C10.4999 6.5401 9.8399 7.2001 8.9999 7.2001C8.1599 7.2001 7.4999 6.5401 7.4999 5.7001C7.4999 4.8601 8.1599 4.2001 8.9999 4.2001Z" fill="#00AAC4" stroke="#00AAC4" stroke-width="0.5" stroke-miterlimit="10"/>
<path d="M8.93999 16.44L13.53 9.78C15.27 7.47 15 3.69 12.99 1.68C11.94 0.6 10.47 0 8.93999 0C7.40999 0 5.96999 0.6 4.85999 1.68C2.84999 3.69 2.60999 7.47 4.31999 9.78L8.93999 16.44ZM5.30999 2.1C6.26999 1.14 7.58999 0.6 8.93999 0.6C10.29 0.6 11.61 1.14 12.6 2.1C14.4 3.9 14.64 7.32 13.08 9.42L8.93999 15.36L4.82999 9.42C3.26999 7.35 3.47999 3.93 5.30999 2.1Z" fill="#00AAC4" stroke="#00AAC4" stroke-width="0.5" stroke-miterlimit="10"/>
<path d="M12.63 12.9001C12.48 12.8701 12.33 12.9901 12.3 13.1701C12.27 13.3501 12.39 13.4701 12.57 13.5001C15.72 13.8601 17.4 14.8801 17.4 15.4501C17.4 16.2601 14.19 17.4001 9 17.4001C3.81 17.4001 0.6 16.2601 0.6 15.4501C0.6 14.8801 2.28 13.8601 5.43 13.5001C5.58 13.4701 5.7 13.3201 5.7 13.1701C5.67 13.0201 5.52 12.9001 5.37 12.9001C2.22 13.2601 0 14.3101 0 15.4501C0 16.7101 3.09 18.0001 9 18.0001C14.91 18.0001 18 16.7101 18 15.4501C18 14.3101 15.78 13.2601 12.63 12.9001Z" fill="#00AAC4" stroke="#00AAC4" stroke-width="0.5" stroke-miterlimit="10"/>
</svg>
