<svg width="48" height="48" viewBox="0 0 48 48" fill="none" xmlns="http://www.w3.org/2000/svg">
<path d="M40.8 20H32V18.4H42.4C42.8418 18.4 43.2 18.0418 43.2 17.6V12.8C43.1973 10.5918 41.4082 8.80273 39.2 8.79999H32V6.39999C32 4.19101 30.209 2.39999 28 2.39999C25.791 2.39999 24 4.19101 24 6.39999V8.79999H4C1.7918 8.80273 0.00273438 10.5918 0 12.8V36.8C0.00273438 39.0082 1.7918 40.7973 4 40.8H6.46406C6.85938 43.5535 9.21836 45.5977 12 45.5977C14.7816 45.5977 17.1406 43.5535 17.5359 40.8H33.6641C34.0613 43.5684 36.4422 45.618 39.2387 45.5988C42.0355 45.5797 44.3883 43.4984 44.748 40.7246C46.6332 40.366 47.9977 38.7191 48 36.8V27.2C47.9957 23.2254 44.7746 20.0043 40.8 20ZM30.4 34.4H24.8V32C24.8 31.5582 25.1582 31.2 25.6 31.2H30.4V34.4ZM36 16.8V15.2H37.6V16.8H36ZM25.6 6.39999C25.6 5.0746 26.6746 3.99999 28 3.99999C29.3254 3.99999 30.4 5.0746 30.4 6.39999V8.79999H25.6V6.39999ZM12 44C9.79102 44 8 42.209 8 40C8 37.791 9.79102 36 12 36C14.209 36 16 37.791 16 40C15.9973 42.2082 14.2082 43.9973 12 44ZM17.5359 39.2C17.1406 36.4465 14.7816 34.4023 12 34.4023C9.21836 34.4023 6.85938 36.4465 6.46406 39.2H4C2.67461 39.2 1.6 38.1254 1.6 36.8V36H5.61133C6.05312 36 6.41133 35.6418 6.41133 35.2C6.41133 34.7582 6.05312 34.4 5.61133 34.4H1.6V12.8C1.6 11.4746 2.67461 10.4 4 10.4H39.2C40.5254 10.4 41.6 11.4746 41.6 12.8V16.8H39.2V15.2C39.2 14.3164 38.4836 13.6 37.6 13.6H36C35.1164 13.6 34.4 14.3164 34.4 15.2V16.8H31.2C30.7582 16.8 30.4 17.1582 30.4 17.6V29.6H25.6C24.2746 29.6 23.2 30.6746 23.2 32V34.4H18.3887C17.9469 34.4 17.5887 34.7582 17.5887 35.2C17.5887 35.6418 17.9469 36 18.3887 36H30.4V39.2H17.5359ZM39.2 44C36.991 44 35.2 42.209 35.2 40C35.2 37.791 36.991 36 39.2 36C41.409 36 43.2 37.791 43.2 40C43.1973 42.2082 41.4082 43.9973 39.2 44ZM44.7199 39.0785C44.2719 36.3531 41.9016 34.3629 39.1398 34.3934C36.3781 34.4238 34.052 36.4656 33.6641 39.2H32V36H32.8113C33.2531 36 33.6113 35.6418 33.6113 35.2C33.6113 34.7582 33.2531 34.4 32.8113 34.4H32V21.6H40.8C43.8914 21.6035 46.3965 24.1086 46.4 27.2V34.4H45.6C45.1582 34.4 44.8 34.7582 44.8 35.2C44.8 35.6418 45.1582 36 45.6 36H46.4V36.8C46.3969 37.8445 45.7168 38.7664 44.7199 39.0785Z" fill="#00AAC4"/>
<path d="M44.7999 27.2C44.7972 24.9918 43.0082 23.2027 40.8 23.2H36C35.5582 23.2 35.2 23.5582 35.2 24V30.4C35.2 30.8418 35.5582 31.2 36 31.2H44C44.4417 31.2 44.7999 30.8418 44.7999 30.4V27.2ZM43.2 29.6H36.8V24.8H40.8C42.1253 24.8 43.2 25.8746 43.2 27.2V29.6Z" fill="#00AAC4"/>
<path d="M39.2 37.6C37.8747 37.6 36.8 38.6746 36.8 40C36.8 41.3254 37.8747 42.4 39.2 42.4C40.5254 42.4 41.6 41.3254 41.6 40C41.6 38.6746 40.5254 37.6 39.2 37.6ZM39.2 40.8C38.7583 40.8 38.4 40.4418 38.4 40C38.4 39.5582 38.7583 39.2 39.2 39.2C39.6418 39.2 40 39.5582 40 40C40 40.4418 39.6418 40.8 39.2 40.8Z" fill="#00AAC4"/>
<path d="M12.0001 37.6C10.6747 37.6 9.6001 38.6746 9.6001 40C9.6001 41.3254 10.6747 42.4 12.0001 42.4C13.3255 42.4 14.4001 41.3254 14.4001 40C14.4001 38.6746 13.3255 37.6 12.0001 37.6ZM12.0001 40.8C11.5583 40.8 11.2001 40.4418 11.2001 40C11.2001 39.5582 11.5583 39.2 12.0001 39.2C12.4419 39.2 12.8001 39.5582 12.8001 40C12.8001 40.4418 12.4419 40.8 12.0001 40.8Z" fill="#00AAC4"/>
<path d="M20 29.6V27.2H22.4C23.7253 27.2 24.7999 26.1254 24.7999 24.8V21.6C24.7999 20.2746 23.7253 19.2 22.4 19.2H20V16.8C20 15.4746 18.9253 14.4 17.6 14.4H14.4C13.0746 14.4 12 15.4746 12 16.8V19.2H9.59995C8.27456 19.2 7.19995 20.2746 7.19995 21.6V24.8C7.19995 26.1254 8.27456 27.2 9.59995 27.2H12V29.6C12 30.9254 13.0746 32 14.4 32H17.6C18.9253 32 20 30.9254 20 29.6ZM13.6 29.6V26.4C13.6 25.9582 13.2417 25.6 12.8 25.6H9.59995C9.15815 25.6 8.79995 25.2418 8.79995 24.8V21.6C8.79995 21.1582 9.15815 20.8 9.59995 20.8H12.8C13.2417 20.8 13.6 20.4418 13.6 20V16.8C13.6 16.3582 13.9582 16 14.4 16H17.6C18.0417 16 18.4 16.3582 18.4 16.8V20C18.4 20.4418 18.7582 20.8 19.2 20.8H22.4C22.8417 20.8 23.2 21.1582 23.2 21.6V24.8C23.2 25.2418 22.8417 25.6 22.4 25.6H19.2C18.7582 25.6 18.4 25.9582 18.4 26.4V29.6C18.4 30.0418 18.0417 30.4 17.6 30.4H14.4C13.9582 30.4 13.6 30.0418 13.6 29.6Z" fill="#00AAC4"/>
<path d="M7.99995 15.2V13.6C7.99995 12.7164 7.28354 12 6.39995 12H4.79995C3.91636 12 3.19995 12.7164 3.19995 13.6V15.2C3.19995 16.0836 3.91636 16.8 4.79995 16.8H6.39995C7.28354 16.8 7.99995 16.0836 7.99995 15.2ZM4.79995 15.2V13.6H6.39995V15.2H4.79995Z" fill="#00AAC4"/>
</svg>
