<svg width="38" height="38" viewBox="0 0 38 38" fill="none" xmlns="http://www.w3.org/2000/svg">
<g opacity="0.9">
<path d="M36.5527 34.675V12.8102C36.5527 12.5059 36.3004 12.2535 35.9961 12.2535C35.6918 12.2535 35.4395 12.5059 35.4395 12.8102V34.6602H34.3262V12.6172H35.4395V14.1832C35.4395 14.4875 35.6918 14.7398 35.9961 14.7398C36.3004 14.7398 36.5527 14.4875 36.5527 14.1832V9.83398C36.5527 9.52969 36.3004 9.27734 35.9961 9.27734H32.3223V7.91914C32.9309 7.80781 33.391 7.28086 33.391 6.64258V5.90039C33.391 5.37344 33.0719 4.91328 32.6191 4.71289V1.89258C32.6191 0.846094 31.773 0 30.7266 0H27.1641C26.1176 0 25.2715 0.846094 25.2715 1.89258V4.6832C24.7742 4.86133 24.4105 5.34375 24.4105 5.90039V6.64258C24.4105 7.31055 24.9152 7.85977 25.5684 7.93398V9.27734H22.4141V7.91914C23.0227 7.80781 23.4828 7.28086 23.4828 6.64258V5.90039C23.4828 5.37344 23.1637 4.91328 22.7109 4.71289V1.89258C22.7109 0.846094 21.8648 0 20.8184 0H17.2559C16.2094 0 15.3633 0.846094 15.3633 1.89258V4.6832C14.866 4.86133 14.5023 5.34375 14.5023 5.90039V6.64258C14.5023 7.31055 15.007 7.85977 15.6602 7.93398V9.27734H12.5133V7.91914C13.1219 7.80781 13.582 7.28086 13.582 6.64258V5.90039C13.582 5.37344 13.2629 4.91328 12.8102 4.71289V1.89258C12.8102 0.846094 11.9641 0 10.9176 0H7.35508C6.31602 0 5.4625 0.846094 5.4625 1.89258V4.6832C4.96523 4.86133 4.60156 5.34375 4.60156 5.90039V6.64258C4.60156 7.31055 5.10625 7.85977 5.75938 7.93398V9.27734H2.00391C1.69961 9.27734 1.44727 9.52969 1.44727 9.83398V34.5488C1.44727 34.8531 1.69961 35.1055 2.00391 35.1055C2.3082 35.1055 2.56055 34.8531 2.56055 34.5488V12.6172H3.67383V34.6602H2.56055V33.2574C2.56055 32.9531 2.3082 32.7008 2.00391 32.7008C1.69961 32.7008 1.44727 32.9531 1.44727 33.2574V34.6824C0.630859 34.7863 0 35.484 0 36.3301V37.2207C0 37.6512 0.348828 38 0.779297 38H28.5148C28.8191 38 29.0715 37.7477 29.0715 37.4434C29.0715 37.1391 28.8191 36.8867 28.5148 36.8867H1.11328V36.3301C1.11328 36.0258 1.36563 35.7734 1.66992 35.7734H36.3301C36.6344 35.7734 36.8867 36.0258 36.8867 36.3301V36.8867H26.4367C26.1324 36.8867 25.8801 37.1391 25.8801 37.4434C25.8801 37.7477 26.1324 38 26.4367 38H37.2207C37.6512 38 38 37.6512 38 37.2207V36.3301C38 35.484 37.3691 34.7863 36.5527 34.675ZM26.3848 1.89258C26.3848 1.46211 26.7336 1.11328 27.1641 1.11328H30.7266C31.157 1.11328 31.5059 1.46211 31.5059 1.89258V4.60156H26.3848V1.89258ZM25.5238 5.90039C25.5238 5.79648 25.6055 5.71484 25.7094 5.71484H32.0922C32.1961 5.71484 32.2777 5.79648 32.2777 5.90039V6.64258C32.2777 6.74648 32.1961 6.82812 32.0922 6.82812H25.7094C25.6055 6.82812 25.5238 6.74648 25.5238 6.64258V5.90039ZM26.6816 7.94141H31.209V9.27734H26.6816V7.94141ZM16.484 1.89258C16.484 1.46211 16.8328 1.11328 17.2633 1.11328H20.8258C21.2563 1.11328 21.6051 1.46211 21.6051 1.89258V4.60156H16.484V1.89258ZM15.623 5.90039C15.623 5.79648 15.7047 5.71484 15.8086 5.71484H22.1914C22.2953 5.71484 22.377 5.79648 22.377 5.90039V6.64258C22.377 6.74648 22.2953 6.82812 22.1914 6.82812H15.8086C15.7047 6.82812 15.623 6.74648 15.623 6.64258V5.90039ZM16.7809 7.94141H21.3082V9.27734H16.7809V7.94141ZM6.57578 1.89258C6.57578 1.46211 6.92461 1.11328 7.35508 1.11328H10.9176C11.348 1.11328 11.6969 1.46211 11.6969 1.89258V4.60156H6.57578V1.89258ZM5.72227 5.90039C5.72227 5.79648 5.80391 5.71484 5.90781 5.71484H12.2906C12.3945 5.71484 12.4762 5.79648 12.4762 5.90039V6.64258C12.4762 6.74648 12.3945 6.82812 12.2906 6.82812H5.90781C5.80391 6.82812 5.72227 6.74648 5.72227 6.64258V5.90039ZM6.87266 7.94141H11.4V9.27734H6.87266V7.94141ZM2.56055 11.5039V10.3906H35.4395V11.5039H2.56055ZM26.6816 17.0777H31.209V26.9785C31.209 28.2254 30.1922 29.2422 28.9453 29.2422C27.6984 29.2422 26.6816 28.2254 26.6816 26.9785V17.0777ZM31.209 15.9645H26.6816V12.6172H31.209V15.9645ZM16.7809 17.0777H21.3082V26.9785C21.3082 28.2254 20.2914 29.2422 19.0445 29.2422C17.7977 29.2422 16.7809 28.2254 16.7809 26.9785V17.0777ZM21.3082 15.9645H16.7809V12.6172H21.3082V15.9645ZM6.87266 17.0777H11.4V26.9785C11.4 28.2254 10.3832 29.2422 9.13633 29.2422C7.88945 29.2422 6.87266 28.2254 6.87266 26.9785V17.0777ZM11.4 15.9645H6.87266V12.6172H11.4V15.9645ZM4.78711 12.6172H5.75938V26.9785C5.75938 28.8414 7.27344 30.3555 9.13633 30.3555C10.9992 30.3555 12.5133 28.8414 12.5133 26.9785V12.6172H15.6602V26.9785C15.6602 28.8414 17.1742 30.3555 19.0371 30.3555C20.9 30.3555 22.4141 28.8414 22.4141 26.9785V12.6172H25.5684V26.9785C25.5684 28.8414 27.0824 30.3555 28.9453 30.3555C30.8082 30.3555 32.3223 28.8414 32.3223 26.9785V12.6172H33.2129V34.6602H4.78711V12.6172Z" fill="white"/>
</g>
</svg>
