<svg width="50" height="50" viewBox="0 0 50 50" fill="none" xmlns="http://www.w3.org/2000/svg">
<g clip-path="url(#clip0_1_976)">
<path d="M33.3105 32.0605L32.6465 30.7324C34.6094 29.043 35.957 26.748 36.4844 24.2188H37.1094C39.0527 24.2188 40.625 22.6465 40.625 20.7031C40.6348 19.7754 40.2539 18.877 39.5898 18.2227C39.2187 17.8516 38.7695 17.5684 38.2812 17.3926V14.8438C38.2715 7.50977 32.334 1.57227 25 1.5625C24.0527 1.5625 23.1055 1.66992 22.1777 1.875L10.8496 3.13477C10.6055 3.1543 10.3906 3.29102 10.2734 3.50586C10.1465 3.71094 10.127 3.95508 10.2051 4.18945L10.5078 5C11.0547 6.46484 12.002 7.75391 13.2227 8.73047C12.2363 10.6055 11.7187 12.7148 11.7187 14.8438V17.4023C10.3223 17.9004 9.375 19.2188 9.375 20.7031C9.375 22.6465 10.9473 24.2188 12.8906 24.2188H13.5156C14.043 26.7578 15.3906 29.043 17.3535 30.7324L16.6895 32.0605C13.0957 33.5742 10.6934 37.002 10.498 40.8984L10.166 47.6172C10.1562 47.832 10.2344 48.0371 10.3809 48.1934C10.5273 48.3496 10.7324 48.4375 10.9473 48.4375H39.0723C39.2871 48.4375 39.4922 48.3496 39.6387 48.1934C39.7852 48.0371 39.8633 47.832 39.8535 47.6172L39.5215 40.8984C39.3066 37.0117 36.9043 33.5742 33.3105 32.0605ZM38.4961 19.3262C38.8672 19.6875 39.0723 20.1855 39.0625 20.7031C39.0625 21.7773 38.1836 22.6562 37.1094 22.6562H36.6797C36.6992 22.4023 36.7187 22.1387 36.7187 21.875V18.75H37.1094C37.627 18.75 38.125 18.9551 38.4961 19.3262ZM12.8906 22.6562C11.8164 22.6562 10.9375 21.7773 10.9375 20.7031C10.9375 19.6289 11.8164 18.75 12.8906 18.75H13.2812V21.875C13.2812 22.1387 13.3008 22.4023 13.3203 22.6562H12.8906ZM13.2812 17.1875V14.8438C13.2812 12.7441 13.8477 10.6934 14.9219 8.88672C15.1367 8.52539 15.0293 8.06641 14.6777 7.83203C13.4766 7.04102 12.5488 5.9082 12.0215 4.57031L22.3926 3.41797C22.4121 3.4082 22.4512 3.4082 22.4707 3.39844C28.7793 1.99219 35.0293 5.95703 36.4355 12.2656C36.6211 13.1055 36.7187 13.9746 36.7187 14.834V17.1777H36.4551L34.3164 12.1875C34.1992 11.9043 33.9258 11.7188 33.623 11.709C33.3203 11.6992 33.0371 11.8652 32.9004 12.1387L31.6016 14.7461L16.5625 11.7383C16.2012 11.6602 15.8301 11.8555 15.6836 12.1973L13.5449 17.1875H13.2812ZM14.8437 21.875V18.125L16.875 13.3887L31.875 16.3867C32.2168 16.4551 32.5684 16.2891 32.7246 15.9766L33.5352 14.3555L35.1562 18.125V21.875C35.1562 27.4805 30.6055 32.0312 25 32.0312C19.3945 32.0312 14.8437 27.4805 14.8437 21.875ZM31.8555 32.6562L28.5059 36.0059L27.7246 33.252C29.0234 32.9492 30.2539 32.4121 31.3769 31.6895L31.8555 32.6562ZM22.2754 33.2617L21.4941 36.0156L18.1445 32.666L18.6328 31.709C19.7461 32.4219 20.9766 32.9492 22.2754 33.2617ZM24.2187 46.875H11.7578L12.0508 40.9766C12.207 37.8223 14.082 35.0195 16.9238 33.6523L21.3184 38.0469C21.4648 38.1934 21.6699 38.2715 21.875 38.2715C21.9434 38.2715 22.002 38.2617 22.0703 38.252C22.334 38.1836 22.5488 37.9785 22.627 37.7148L22.8223 37.0312C23.2715 37.2363 23.7402 37.373 24.2187 37.4414V46.875ZM23.2617 35.5176L23.8281 33.5352C24.6094 33.623 25.4004 33.623 26.1914 33.5352L26.7578 35.5176C25.6445 36.0547 24.3555 36.0547 23.2617 35.5176ZM25.7812 46.875V37.4414C26.2598 37.373 26.7383 37.2363 27.1777 37.0312L27.373 37.7148C27.4512 37.9785 27.666 38.1836 27.9297 38.252C27.998 38.2715 28.0566 38.2715 28.125 38.2715C28.3301 38.2715 28.5352 38.1934 28.6816 38.0469L33.0762 33.6523C35.918 35.0098 37.793 37.8223 37.9492 40.9766L38.2422 46.875H25.7812Z" fill="#00AAC4"/>
</g>
<defs>
<clipPath id="clip0_1_976">
<rect width="50" height="50" fill="white"/>
</clipPath>
</defs>
</svg>
