<svg width="48" height="48" viewBox="0 0 48 48" fill="none" xmlns="http://www.w3.org/2000/svg">
<g clip-path="url(#clip0_1_967)">
<path d="M44.8374 27.0678C46.7448 25.4332 47.8897 23.0815 48 20.572C47.9783 18.8301 47.016 17.2362 45.4848 16.4057C45.948 15.4574 46.1617 14.4066 46.1057 13.3526C46.1057 10.7682 43.8969 9.37954 42.8695 8.87343C42.6867 5.90279 40.9607 3.0583 37.8209 3.0583C37.3271 3.05183 36.8364 3.13721 36.3737 3.31023C35.5794 1.80204 33.3616 0.530592 30.1146 0.530592C28.8316 0.508005 27.5761 0.902954 26.5371 1.65602C25.2737 0.508193 23.602 -0.0837615 21.8978 0.013148C19.921 0.013148 18.1899 1.53305 17.4061 2.34526C16.416 1.85883 15.3345 1.58666 14.232 1.54664C11.5453 1.42611 9.2468 3.45784 9.03667 6.13907C9.03611 6.60946 9.08935 7.07836 9.19525 7.53676C7.44479 7.55663 5.7664 8.23668 4.4958 9.44092C2.09021 11.8465 2.22808 14.0099 2.65921 15.2815C1.73707 15.4416 0.938828 16.0147 0.492239 16.8373C0.11313 17.6914 -0.0511666 18.6253 0.0138771 19.5576C-0.0534159 21.1429 0.699273 22.6514 2.00624 23.5509C1.77437 23.9457 1.65318 24.3955 1.65515 24.8533C1.65515 28.6667 5.19319 29.8152 7.09577 29.8905C8.2434 29.9107 9.38757 29.7579 10.4898 29.4372C11.0302 31.0316 12.5248 32.1058 14.2082 32.1099C15.2975 32.119 16.3779 31.9136 17.3878 31.5054C17.544 32.2678 17.9049 32.9733 18.4316 33.5462C18.9135 34.039 19.5362 34.3703 20.2142 34.4944C19.5682 35.5167 19.2445 36.7097 19.285 37.9184C19.285 40.6179 20.9103 41.9933 22.3439 43.207C23.6654 44.3259 24.8069 45.292 24.8069 47.1996C24.8069 47.6414 25.165 47.9994 25.6066 47.9994H34.367C34.8029 47.9993 35.1585 47.6503 35.1667 47.2145C35.1769 45.0956 35.0038 42.9798 34.6494 40.8907C36.8863 40.7582 39.0653 40.1262 41.026 39.0411C45.5606 36.4226 47.674 31.5627 45.7372 28.2071C45.4913 27.7874 45.1886 27.404 44.8374 27.0678ZM19.5837 32.4363C19.096 31.8218 18.834 31.0585 18.8413 30.274C18.8415 30.2694 18.8397 30.2651 18.8397 30.2605L18.8417 30.251C18.8417 27.9204 19.8551 26.8809 22.1279 26.8809C22.5696 26.8809 22.9276 26.5229 22.9276 26.0811C22.9276 25.6394 22.5696 25.2814 22.1279 25.2814C21.8101 25.2838 21.4927 25.3072 21.1779 25.3514C21.6903 24.1431 22.8369 22.5764 24.2967 22.5764C25.4782 22.5201 26.6427 22.8744 27.5927 23.5792C27.9186 23.8765 28.4236 23.8537 28.7216 23.5284C29.0194 23.2031 28.9977 22.6979 28.6728 22.3994C28.2396 22.0451 27.7546 21.7591 27.2348 21.5516C27.6172 20.52 28.7675 18.4904 30.7031 18.4904C32.9512 18.4904 33.3894 19.7026 33.4152 19.7803C33.5371 20.2022 33.9764 20.4469 34.3993 20.3284C34.8222 20.21 35.0705 19.7726 34.9554 19.3487C34.6742 18.5411 34.0922 17.8732 33.3306 17.4841C34.3029 16.5984 34.895 15.3711 34.9831 14.0587C34.9831 13.617 34.625 13.259 34.1834 13.259C33.7417 13.259 33.3836 13.617 33.3836 14.0587C33.3836 15.4189 31.8622 16.9106 31.2159 16.9106L31.2094 16.912C31.046 16.9008 30.8808 16.8907 30.7032 16.8907C27.8828 16.8907 26.2496 19.5251 25.7035 21.11C25.2396 21.0234 24.7688 20.9788 24.2968 20.9766C22.7863 21.071 21.4122 21.8826 20.6005 23.16C19.7951 22.8049 18.2701 21.7851 18.2701 19.1533C18.2701 18.7116 17.912 18.3536 17.4703 18.3536C17.0286 18.3536 16.6706 18.7116 16.6706 19.1533C16.5393 21.4141 17.7647 23.5365 19.7883 24.5531C19.5825 24.9956 19.4316 25.4617 19.339 25.9409C18.0203 26.7694 17.236 28.2315 17.2753 29.7884C16.3301 30.2833 15.2752 30.5317 14.2085 30.5102C12.2461 30.5102 11.8424 28.4698 11.8029 28.2374C11.7583 27.9806 11.5921 27.7613 11.3569 27.6489C11.1216 27.5367 10.8467 27.5452 10.6188 27.672C9.51757 28.1416 8.32363 28.3536 7.12801 28.2917C6.9698 28.285 3.25491 28.0996 3.25491 24.8532C3.25032 24.5891 3.36091 24.336 3.55782 24.1598C3.68669 24.1715 3.85314 24.1822 4.05661 24.1822C5.52047 24.2042 6.93269 23.6419 7.98089 22.6198C8.29317 22.3075 8.29317 21.8011 7.98089 21.4888C7.6686 21.1765 7.16222 21.1765 6.84993 21.4888C5.98168 22.3169 4.78606 22.7089 3.59606 22.5556C2.31028 22.1493 1.48373 20.8991 1.61354 19.5569C1.5604 18.8881 1.65937 18.2158 1.90296 17.5907C2.09396 17.2333 2.50709 16.7582 3.88445 16.7582C4.19364 16.7581 4.47509 16.5798 4.60733 16.3003C4.73957 16.0208 4.6988 15.6902 4.50264 15.4511C4.43357 15.3667 2.84262 13.3568 5.62694 10.5717C6.64655 9.55245 8.09026 9.0979 10.3077 9.0979C10.5892 9.09612 10.8493 8.947 10.993 8.70492C11.1366 8.46283 11.1431 8.16311 11.0097 7.91512C10.7543 7.3584 10.6268 6.75154 10.6364 6.13907C10.8601 4.35027 12.4326 3.04152 14.2323 3.14621C15.269 3.21144 16.277 3.51276 17.1795 4.02711C17.5222 4.22899 17.961 4.14961 18.2112 3.84042C18.7111 3.22072 20.3473 1.61262 21.8981 1.61262C24.816 1.61262 25.7106 3.12897 25.7419 3.18323C25.8687 3.41904 26.1047 3.57621 26.3712 3.60245C26.6376 3.6287 26.8997 3.52054 27.0701 3.31407C27.8701 2.50374 28.9776 2.07299 30.1149 2.13007C33.4334 2.13007 35.0989 3.68709 35.0989 4.55871C35.1038 4.88955 35.3135 5.18262 35.625 5.29406C35.9413 5.40812 36.2952 5.3174 36.5177 5.06519C36.8787 4.75778 37.3494 4.61073 37.8212 4.65787C40.5622 4.65787 41.2866 7.76047 41.2866 9.401C41.2877 9.73559 41.496 10.0345 41.8095 10.1512C41.8364 10.1613 44.5064 11.1805 44.5064 13.3525C44.6185 14.3487 44.3309 15.3487 43.7066 16.133C43.5131 16.3277 43.4328 16.6079 43.4936 16.8756C43.5544 17.1433 43.7482 17.3611 44.0069 17.4529C44.1046 17.4876 46.4008 18.3319 46.4008 20.5719C46.4008 22.7082 44.8665 25.4436 43.051 26.2906C42.9049 26.3588 42.7536 26.4149 42.5984 26.4584C42.5558 26.4703 42.5134 26.4835 42.4706 26.4932C42.3007 26.5343 42.1268 26.5564 41.9521 26.5589C41.562 26.559 41.2288 26.8406 41.1637 27.2251C41.0985 27.6097 41.3202 27.9853 41.6885 28.1139C41.6936 28.1155 42.2114 28.3607 42.2114 29.3932C41.9522 30.9334 40.5867 32.0394 39.0264 31.9729C37.3761 31.9729 36.5181 31.9077 35.0518 30.4417C34.8152 30.2046 34.4557 30.1403 34.1517 30.2808C34.1297 30.2909 34.1111 30.3066 34.0902 30.3186C34.0162 30.353 33.9514 30.4048 33.9015 30.4694C33.886 30.4863 33.8674 30.5002 33.8534 30.5185C33.8131 30.5706 33.7793 30.6274 33.753 30.6877L33.749 30.6962C33.7461 30.7026 33.7345 30.7262 33.718 30.759L33.7073 30.7801C33.6792 30.834 33.6381 30.9088 33.583 30.9996L33.5782 31.0075C33.3187 31.4296 32.999 31.8117 32.6291 32.1416L32.6216 32.1482C32.0773 32.6341 31.4257 32.9838 30.7199 33.1688L30.689 33.1773C30.4978 33.2257 30.304 33.263 30.1085 33.289C30.0935 33.291 30.0796 33.2943 30.0644 33.2961C29.858 33.3221 29.6501 33.3351 29.442 33.3351C27.5699 33.3351 26.9928 32.9251 25.8209 31.7535C25.7431 31.6772 25.6498 31.6185 25.5474 31.5812C25.4495 31.5627 25.3517 31.5444 25.2538 31.5259C25.2378 31.5259 25.2222 31.5264 25.2066 31.5274L25.2046 31.5271L25.2032 31.5275H25.203C25.1932 31.528 25.1848 31.5345 25.175 31.5354C25.0716 31.5441 24.971 31.5727 24.8785 31.6199C24.847 31.6425 24.817 31.6673 24.7889 31.694C24.726 31.733 24.6688 31.7804 24.6188 31.8349C24.5717 31.8899 24.5206 31.9414 24.466 31.9888L24.452 32.0017C24.4071 32.0409 24.3477 32.0871 24.2828 32.1347C24.2695 32.1446 24.2576 32.1538 24.2435 32.164C24.1761 32.2117 24.0946 32.2625 24.0065 32.3138C23.9847 32.3266 23.9633 32.3392 23.9402 32.3522C23.8487 32.4029 23.744 32.4539 23.6311 32.5042C23.5992 32.5185 23.5658 32.5325 23.532 32.5465C23.4155 32.5949 23.2877 32.6413 23.1489 32.6855C23.1039 32.6999 23.055 32.713 23.0076 32.7267C22.866 32.7673 22.7157 32.8053 22.5522 32.8382C22.4883 32.851 22.4171 32.8605 22.3497 32.8719C22.1859 32.8995 22.0173 32.9251 21.8323 32.9423C21.5929 32.9643 21.3455 32.9823 21.0686 32.9823C20.5189 33.0163 19.9802 32.8182 19.5837 32.4363ZM26.3543 46.3997C26.0677 44.2632 24.6466 43.0608 23.3775 41.9861C22.0396 40.854 20.8845 39.8758 20.8845 37.9182C20.8231 36.6441 21.3088 35.4045 22.2193 34.5113C22.2348 34.5095 22.2484 34.5066 22.264 34.5046C23.3343 34.4062 24.3608 34.0323 25.2438 33.4195C25.9938 34.171 26.9634 34.6646 28.0124 34.8289L28.0263 34.8319C28.2159 34.8629 28.4201 34.8853 28.6338 34.9024C28.6528 34.904 28.6686 34.9072 28.6878 34.9087C28.923 34.926 29.1735 34.9348 29.4418 34.9348C29.7222 34.9328 30.0021 34.913 30.28 34.8755C30.3819 34.8632 30.483 34.851 30.5812 34.8346C30.5931 34.8325 30.605 34.8319 30.6169 34.8297C30.6389 34.8553 30.6617 34.8782 30.6834 34.9043C30.772 35.0113 30.8555 35.1262 30.9389 35.2414C30.9962 35.321 31.0552 35.3963 31.1109 35.4808C31.1721 35.5733 31.2278 35.6733 31.2859 35.77C32.0631 37.171 32.6062 38.6895 32.894 40.2655L32.8975 40.2745C33.2959 42.2932 33.5179 44.3426 33.561 46.3997H26.3543ZM40.2261 37.6554C38.4133 38.6545 36.3939 39.2204 34.3259 39.3091C33.9569 37.5315 33.255 35.8397 32.2573 34.3228L32.2493 34.3099C33.2145 33.8358 34.0465 33.129 34.6706 32.2533C34.8484 32.3973 35.0221 32.5234 35.1936 32.6379C35.2022 32.6436 35.2113 32.6516 35.22 32.6573C35.3818 32.7637 35.549 32.8617 35.7208 32.951C35.7321 32.9569 35.7439 32.9655 35.7553 32.9713C35.9084 33.0489 36.0655 33.1186 36.2259 33.18C36.2441 33.1871 36.2627 33.1975 36.2809 33.2044C36.4513 33.2683 36.625 33.3227 36.8014 33.3676L36.8041 33.3684C36.9764 33.4122 37.1497 33.4466 37.325 33.4739L37.3328 33.4755C37.894 33.551 38.46 33.5834 39.026 33.5725C41.4653 33.6363 43.5459 31.819 43.8106 29.3932C43.8097 29.1779 43.7917 28.9631 43.7569 28.7507C43.7507 28.7116 43.7457 28.672 43.7384 28.6341C43.7056 28.4579 43.6588 28.2847 43.5985 28.116C43.5948 28.1059 43.5933 28.093 43.5896 28.083C43.8922 28.3473 44.1496 28.6592 44.3515 29.0065C45.8478 31.5985 43.9973 35.4783 40.2261 37.6554Z" fill="#00AAC4"/>
<path d="M28.6622 28.6531C29.3026 28.1547 30.093 27.8882 30.9045 27.897C31.7238 27.9218 32.5012 28.2645 33.0723 28.8525C33.36 29.1877 33.8649 29.2261 34.2001 28.9385C34.5352 28.6507 34.5736 28.1458 34.286 27.8107C33.6084 27.0927 32.7285 26.5976 31.7631 26.3913C31.959 25.2294 32.6177 25.1291 32.7176 25.1221C33.1555 25.1119 33.5037 24.7515 33.4987 24.3135C33.4937 23.8755 33.1373 23.5231 32.6994 23.523C31.8872 23.523 30.4241 24.1408 30.1528 26.3532C29.2142 26.4811 28.3289 26.8649 27.5938 27.4625C27.2693 27.7585 27.2442 28.2608 27.5376 28.5877C27.8307 28.9145 28.3328 28.9437 28.6622 28.6531Z" fill="#00AAC4"/>
<path d="M36.1299 24.9057C36.1541 24.9076 36.178 24.9087 36.2018 24.9087C36.6157 24.9083 36.9609 24.5922 36.9977 24.18C37.0004 24.1481 37.3425 20.961 42.2545 20.961C42.6962 20.961 43.0542 20.603 43.0542 20.1613C43.0542 19.7196 42.6962 19.3616 42.2545 19.3616C41.2297 19.3457 40.2089 19.4941 39.2311 19.801C38.656 19.16 38.3301 18.3337 38.3126 17.4726C38.2887 16.469 38.7742 15.5215 39.6029 14.9548C40.4479 15.281 41.3491 15.4365 42.2545 15.4123C42.6963 15.4123 43.0543 15.0542 43.0543 14.6125C43.0543 14.1708 42.6962 13.8128 42.2545 13.8128C39.2495 13.8128 39.0762 12.3503 39.0683 12.2581C39.0411 11.8274 38.6837 11.4921 38.2522 11.4923C37.8107 11.5021 37.4604 11.8677 37.4696 12.3093C37.5365 12.9418 37.8041 13.5363 38.2333 14.0059C37.241 14.8814 36.685 16.1497 36.7132 17.4727C36.7217 18.5694 37.0864 19.6337 37.7522 20.5053C36.5035 21.296 35.6499 22.5804 35.4046 24.038C35.3652 24.4779 35.69 24.8664 36.1299 24.9057Z" fill="#00AAC4"/>
<path d="M32.2665 10.7527C30.9511 10.7869 29.674 10.3082 28.7052 9.41784C28.701 9.41353 28.6999 9.40772 28.6956 9.4035L28.6884 9.39872C27.8877 8.49477 27.4786 7.30992 27.551 6.10446C27.551 5.66274 27.1929 5.30472 26.7512 5.30472C26.3095 5.30472 25.9515 5.66274 25.9515 6.10446C25.9033 7.47403 26.2969 8.8228 27.0739 9.9516C26.377 10.7599 25.9387 11.7588 25.8157 12.8189C25.6928 13.9772 26.1011 15.1288 26.9259 15.9512C27.1276 16.1549 27.4228 16.2351 27.6999 16.1614C27.9769 16.0876 28.1932 15.8713 28.267 15.5943C28.3408 15.3172 28.2605 15.022 28.0569 14.8203C27.5676 14.3344 27.3287 13.6507 27.4086 12.9657C27.4927 12.2795 27.7689 11.631 28.2055 11.095C29.3919 11.9336 30.8139 12.3739 32.2666 12.3522C32.7084 12.3522 33.0664 11.9942 33.0664 11.5525C33.0664 11.1108 32.7083 10.7527 32.2665 10.7527Z" fill="#00AAC4"/>
<path d="M17.8465 12.6714C16.3481 10.9022 16.9955 8.1238 17.0019 8.09644C17.0715 7.81892 16.9876 7.52538 16.7819 7.3266C16.5761 7.12781 16.2799 7.05414 16.005 7.13343C15.7301 7.21272 15.5184 7.43278 15.4501 7.71058C15.0606 9.43058 15.2617 11.2316 16.0212 12.8233C15.0905 13.0326 14.2588 13.5527 13.6632 14.2978C13.2959 14.772 13.017 15.3086 12.8397 15.8816C11.7306 15.8798 10.8249 15.7477 9.1242 14.0471C8.81192 13.7348 8.30563 13.7348 7.99325 14.0471C7.68096 14.3594 7.68096 14.8658 7.99325 15.178C9.96921 17.154 11.3055 17.4425 12.5173 17.4776C12.4184 18.6253 12.4876 19.7812 12.7227 20.9088C12.8223 21.3389 13.2516 21.6069 13.6817 21.5074C14.1118 21.4081 14.38 20.9789 14.2808 20.5487C14.059 19.5877 13.74 16.7706 14.9147 15.2936C15.551 14.5577 16.5008 14.1706 17.4702 14.2522C19.5652 14.1512 21.3729 15.7074 21.5847 17.7941C21.6149 18.0782 21.7944 18.3245 22.0556 18.4404C22.3167 18.5562 22.6198 18.5239 22.8507 18.3556C23.0815 18.1874 23.2051 17.9088 23.1749 17.6247C22.8853 14.8744 20.6105 12.7597 17.8465 12.6714Z" fill="#00AAC4"/>
</g>
<defs>
<clipPath id="clip0_1_967">
<rect width="48" height="48" fill="white"/>
</clipPath>
</defs>
</svg>
