<svg width="40" height="40" viewBox="0 0 40 40" fill="none" xmlns="http://www.w3.org/2000/svg">
<g opacity="0.9" clip-path="url(#clip0_1_1295)">
<path d="M38.0938 1.80463C37.7891 0.765564 36.8282 -6.10342e-05 35.6876 -6.10342e-05C34.3125 -6.10342e-05 33.1875 1.12494 33.1875 2.49994C33.1875 3.87494 34.3125 4.99994 35.6876 4.99994C36.7266 4.99994 37.6172 4.36713 37.9923 3.46088C38.2579 3.64838 38.4298 3.95306 38.4298 4.29681V6.3515C38.4298 10.8281 35.6172 14.7578 31.3985 16.2031C27.1797 14.7578 24.3672 10.8281 24.3672 6.3515V4.29681C24.3672 3.95306 24.5391 3.64838 24.8047 3.46088C25.1875 4.35931 26.0781 4.99213 27.1094 4.99213C28.4844 4.99213 29.6094 3.86713 29.6094 2.49213C29.6094 1.11713 28.4844 -0.00787354 27.1094 -0.00787354C25.9688 -0.00787354 25.0078 0.757752 24.7031 1.80463C23.6172 2.10931 22.8125 3.10931 22.8125 4.29681V6.3515C22.8125 8.914 23.6094 11.3593 25.125 13.4296C26.5313 15.3515 28.4375 16.7812 30.6641 17.6015V25.9921C30.6641 26.5624 30.2032 27.0312 29.625 27.0312C29.0469 27.0312 28.5938 26.5624 28.5938 25.9921V21.8203C28.5938 20.3906 27.4297 19.2187 25.9922 19.2187C24.5547 19.2187 23.3906 20.3828 23.3906 21.8203V29.1406C21.6094 29.4999 20.2656 31.0781 20.2656 32.9687C20.2656 35.1249 22.0156 36.8749 24.1719 36.8749C26.3281 36.8749 28.0782 35.1249 28.0782 32.9687C28.0782 31.0859 26.7344 29.5078 24.9531 29.1406V21.8203C24.9531 21.2499 25.4141 20.7812 25.9922 20.7812C26.5703 20.7812 27.0313 21.2421 27.0313 21.8203V25.9921C27.0313 27.4218 28.1953 28.5937 29.6328 28.5937C31.0703 28.5937 32.2344 27.4296 32.2344 25.9921V17.5703C34.4219 16.7499 36.3047 15.3281 37.6954 13.4296C39.211 11.3593 40.0079 8.914 40.0079 6.3515V4.29681C40.0001 3.10931 39.1876 2.1015 38.0938 1.80463ZM35.6876 3.43744C35.1719 3.43744 34.7501 3.01556 34.7501 2.49994C34.7501 1.98431 35.1719 1.56244 35.6876 1.56244C36.2032 1.56244 36.6251 1.98431 36.6251 2.49994C36.6251 3.01556 36.2032 3.43744 35.6876 3.43744ZM27.1172 1.56244C27.6328 1.56244 28.0547 1.98431 28.0547 2.49994C28.0547 3.01556 27.6328 3.43744 27.1172 3.43744C26.6016 3.43744 26.1797 3.01556 26.1797 2.49994C26.1797 1.98431 26.5938 1.56244 27.1172 1.56244ZM26.5235 32.9609C26.5235 34.2499 25.4688 35.3046 24.1797 35.3046C22.8906 35.3046 21.8359 34.2499 21.8359 32.9609C21.8359 31.6718 22.8906 30.6171 24.1797 30.6171C25.4688 30.6171 26.5235 31.6718 26.5235 32.9609Z" fill="white"/>
<path d="M35 14.5391C34.5703 14.5391 34.2188 14.8906 34.2188 15.3203V37.6562C34.2188 38.0859 33.8672 38.4375 33.4375 38.4375H32.1875V34.8516C32.1875 34.4219 31.8359 34.0703 31.4062 34.0703C30.9766 34.0703 30.625 34.4219 30.625 34.8516V38.4375H2.34375C1.91406 38.4375 1.5625 38.0859 1.5625 37.6562V15.7812C1.5625 15.3516 1.91406 15 2.34375 15H26.3828C26.8125 15 27.1641 14.6484 27.1641 14.2188C27.1641 13.7891 26.8125 13.4375 26.3828 13.4375H2.34375C1.05469 13.4375 0 14.4922 0 15.7812V37.6562C0 38.9453 1.05469 40 2.34375 40H33.4375C34.7266 40 35.7812 38.9453 35.7812 37.6562V15.3203C35.7812 14.8906 35.4297 14.5391 35 14.5391Z" fill="white"/>
<path d="M15.5156 20.2111C14.3281 20.2111 13.1719 20.6251 12.25 21.3673C11.3281 20.6251 10.1719 20.2111 8.98437 20.2111C6.07812 20.2111 3.70312 22.6329 3.70312 25.6017C3.70312 26.0001 3.78125 26.422 3.92969 26.8751H3.20312C2.77344 26.8751 2.42188 27.2267 2.42188 27.6564C2.42188 28.0861 2.77344 28.4376 3.20312 28.4376H4.67187C5.35937 29.5704 6.40625 30.8439 7.8125 32.2423C9.76562 34.1876 11.6875 35.6642 11.7734 35.7189C11.9141 35.8283 12.0781 35.8829 12.25 35.8829C12.4219 35.8829 12.5859 35.8283 12.7266 35.7189C12.8047 35.6564 14.7266 34.1798 16.6875 32.2423C19.4141 29.5314 20.7969 27.297 20.7969 25.6017C20.7891 22.6329 18.4219 20.2111 15.5156 20.2111ZM15.5859 31.1251C14.2656 32.4376 12.9297 33.5548 12.2422 34.1095C11.5547 33.5548 10.2266 32.4454 8.91406 31.1407C7.84375 30.0782 7.08594 29.1876 6.54688 28.4454H7.9375C8.25781 28.4454 8.53906 28.2501 8.66406 27.9611L9.32812 26.3204L11.2578 30.8595C11.375 31.1251 11.625 31.3126 11.9141 31.3361C11.9375 31.3361 11.9531 31.3361 11.9766 31.3361C12.2422 31.3361 12.4922 31.2032 12.6328 30.9767L14.2344 28.4532H15.5937C16.0234 28.4532 16.375 28.1017 16.375 27.672C16.375 27.2423 16.0234 26.8907 15.5937 26.8907H13.8047C13.5391 26.8907 13.2891 27.0314 13.1484 27.2501L12.1172 28.8751L10.0312 23.9767C9.90625 23.6876 9.625 23.5001 9.3125 23.5001H9.30469C8.99219 23.5001 8.70312 23.6954 8.58594 23.9845L7.40625 26.8829H5.60156C5.33594 26.297 5.26562 25.8829 5.26562 25.6095C5.26562 23.5001 6.92969 21.7814 8.98437 21.7814C10.0156 21.7814 10.9687 22.2032 11.6797 22.9689C11.8281 23.1329 12.0391 23.2189 12.2578 23.2189C12.4766 23.2189 12.6875 23.1251 12.8359 22.9689C13.5469 22.2032 14.5 21.7814 15.5312 21.7814C17.5781 21.7814 19.25 23.5001 19.25 25.6095C19.2266 26.3126 18.7578 27.9767 15.5859 31.1251Z" fill="white"/>
<path d="M24.7344 32.4141C24.5859 32.2656 24.3906 32.1875 24.1797 32.1875C23.9766 32.1875 23.7734 32.2734 23.625 32.4141C23.4766 32.5625 23.3984 32.7578 23.3984 32.9688C23.3984 33.1719 23.4844 33.375 23.625 33.5234C23.7734 33.6719 23.9688 33.75 24.1797 33.75C24.3828 33.75 24.5859 33.6641 24.7344 33.5234C24.8828 33.375 24.9609 33.1797 24.9609 32.9688C24.9609 32.7578 24.875 32.5547 24.7344 32.4141Z" fill="white"/>
</g>
<defs>
<clipPath id="clip0_1_1295">
<rect width="40" height="40" fill="white"/>
</clipPath>
</defs>
</svg>
