<svg width="17" height="17" viewBox="0 0 17 17" fill="none" xmlns="http://www.w3.org/2000/svg">
<g clip-path="url(#clip0_1_1142)">
<path d="M14.9247 2.03137H2.07883C0.932133 2.03137 0 2.96351 0 4.1102V12.8898C0 14.0365 0.932133 14.9687 2.07883 14.9687H14.9212C16.0679 14.9687 17 14.0365 17 12.8898V4.11372C17.0035 2.96702 16.0714 2.03137 14.9247 2.03137ZM16.0538 12.8898C16.0538 13.5124 15.5473 14.019 14.9247 14.019H2.07883C1.45624 14.019 0.949721 13.5124 0.949721 12.8898V4.11372C0.949721 3.49113 1.45624 2.98461 2.07883 2.98461H14.9212C15.5438 2.98461 16.0503 3.49113 16.0503 4.11372V12.8898H16.0538Z" fill="#00AAC4"/>
<path d="M10.7214 8.39102L14.8791 4.66249C15.0725 4.48662 15.0901 4.18763 14.9142 3.99065C14.7384 3.79719 14.4394 3.7796 14.2424 3.95548L8.50889 9.10155L7.39033 8.10259C7.38682 8.09907 7.3833 8.09555 7.3833 8.09204C7.35868 8.06741 7.33405 8.04631 7.30591 8.0252L2.75429 3.95196C2.55731 3.77608 2.25833 3.79367 2.08245 3.99065C1.90658 4.18763 1.92416 4.48662 2.12114 4.66249L6.32805 8.42268L2.13873 12.3447C1.94879 12.5241 1.93823 12.8231 2.11763 13.0165C2.2126 13.115 2.33923 13.1678 2.46586 13.1678C2.58193 13.1678 2.69801 13.1256 2.78947 13.0411L7.0421 9.06286L8.19584 10.0935C8.28729 10.1744 8.39985 10.2131 8.51241 10.2131C8.62497 10.2131 8.74105 10.1709 8.82899 10.09L10.0144 9.02769L14.2424 13.0447C14.3338 13.1326 14.4534 13.1748 14.5695 13.1748C14.6961 13.1748 14.8193 13.1256 14.9142 13.0271C15.0936 12.8371 15.0866 12.5346 14.8966 12.3552L10.7214 8.39102Z" fill="#00AAC4"/>
</g>
<defs>
<clipPath id="clip0_1_1142">
<rect width="17" height="17" fill="white"/>
</clipPath>
</defs>
</svg>
