<svg width="50" height="50" viewBox="0 0 50 50" fill="none" xmlns="http://www.w3.org/2000/svg">
<g clip-path="url(#clip0_1_963)">
<path d="M36.9988 22.5018C37.0544 22.2268 37.0826 21.9471 37.0833 21.6665C36.9498 19.6195 36.0002 17.7119 34.4475 16.3715C34.5394 16.3817 34.6253 16.3871 34.72 16.3996C36.1841 16.5959 37.5596 15.6533 37.905 14.217C38.2504 12.7807 37.4536 11.3159 36.0603 10.8251C34.9823 10.4225 33.8577 10.1579 32.7132 10.0377C32.8419 9.47848 32.9101 8.907 32.9166 8.33317C32.9166 6.07 31.2667 4.01923 28.75 3.07607V2.49991C28.75 1.11925 27.6306 -8.01086e-05 26.25 -8.01086e-05C24.8693 -8.01086e-05 23.75 1.11915 23.75 2.49991V2.64317C23.4737 2.69121 23.205 2.75137 22.9439 2.82383L22.5094 1.73819C22.0705 0.640639 20.8486 0.0794116 19.7302 0.461636C18.6117 0.843861 17.9888 2.03555 18.3135 3.17207L18.9841 5.51981C18.5644 6.07567 18.204 6.67391 17.9089 7.30486C17.8751 5.42538 17.3647 3.58535 16.4255 1.95694C15.7269 0.750013 14.4397 0.00470502 13.0449 1.75471e-05H9.77264C9.12958 0.000603481 8.54218 0.365055 8.25605 0.941028C7.96992 1.517 8.03427 2.20518 8.42216 2.71817C9.33202 3.93154 10.4168 5.74549 10.4168 7.50007V18.7335C8.85839 20.4024 7.0835 23.5325 7.0835 29.1666C7.0835 36.6055 7.98193 37.9808 8.86083 38.3445C9.00624 38.4052 9.16229 38.4364 9.31981 38.4365C9.36669 38.4342 9.41336 38.4289 9.45956 38.4209C9.73856 39.044 10.0584 39.6481 10.4169 40.2292V46.2498C10.4101 47.8434 11.4155 49.2657 12.9201 49.791C14.4247 50.3164 16.0968 49.8291 17.0835 48.5777C17.8357 49.5379 19.0118 50.0669 20.2293 49.9929C21.4468 49.9188 22.55 49.2509 23.1802 48.2066C23.6445 48.2806 24.1134 48.3229 24.5835 48.3331C27.0482 48.3413 29.5013 48.6718 31.8804 49.3162C33.3039 49.7206 34.7712 49.9501 36.2501 49.9998C38.2545 49.9998 42.9168 49.0257 42.9168 39.9999C42.9166 35.8288 40.8413 28.3403 36.9988 22.5018ZM35.4166 21.6666C35.4238 21.8735 35.4082 22.0807 35.3704 22.2842C35.3485 22.3215 35.3295 22.3603 35.3137 22.4007C35.2708 22.5592 35.1877 22.7038 35.0723 22.8205C35.0634 22.8289 35.0533 22.8368 35.044 22.845C35.0017 22.8822 34.9568 22.9163 34.9095 22.9469C34.8838 22.9638 34.8587 22.9808 34.8304 22.9968C34.7543 23.0398 34.6749 23.0769 34.5931 23.1077C34.567 23.1177 34.536 23.1259 34.5082 23.1352C34.4135 23.1666 34.3173 23.193 34.2199 23.2142C34.1888 23.2212 34.1594 23.2286 34.1267 23.2349C33.988 23.2618 33.8317 23.2838 33.6566 23.3001C33.6233 23.3032 33.5871 23.3054 33.5524 23.3081C33.3607 23.3229 33.1543 23.3332 32.9165 23.3332C32.7624 23.3332 32.6141 23.3256 32.472 23.3116C32.4613 23.3106 32.4519 23.3083 32.4412 23.3072C32.3104 23.2932 32.184 23.275 32.0646 23.2508L32.0366 23.2438C31.9199 23.2192 31.8082 23.1908 31.7037 23.1578C31.6838 23.1515 31.6666 23.1438 31.6472 23.1374C31.5584 23.1076 31.473 23.076 31.3941 23.0411C31.3594 23.0257 31.3291 23.0087 31.2964 22.9925C31.2409 22.9649 31.1859 22.9375 31.1363 22.9079C31.0929 22.8818 31.0545 22.8546 31.0161 22.8272C30.9858 22.8059 30.9548 22.785 30.9276 22.763C30.8877 22.7304 30.8497 22.6955 30.8137 22.6585C30.7977 22.6424 30.7814 22.6264 30.767 22.6101C30.7348 22.5734 30.7057 22.5343 30.6798 22.4929C30.6704 22.4777 30.6609 22.4627 30.6529 22.4476C30.6389 22.4223 30.6267 22.3959 30.6165 22.3688C30.5943 22.3048 30.5852 22.2369 30.5896 22.1693C30.5913 22.1381 30.5954 22.1069 30.6019 22.0763C30.6105 22.0388 30.6219 22.0019 30.6361 21.9662C30.6535 21.9146 30.6753 21.8646 30.7012 21.8169L30.7126 21.7991C30.793 21.6621 30.8911 21.5362 31.0041 21.4247L31.0044 21.4242L31.0047 21.4238L31.0056 21.4226L31.0061 21.422L31.0064 21.4218C31.1378 21.287 31.2585 21.1423 31.3676 20.989C31.3867 20.9631 31.4118 20.9404 31.4299 20.9141C31.4685 20.8591 31.4969 20.7995 31.5324 20.743C31.5359 20.7376 31.5409 20.7339 31.5442 20.7284C31.5641 20.6961 31.5793 20.6616 31.5983 20.6289C31.689 20.4755 31.77 20.3166 31.8409 20.1531C31.8437 20.1469 31.8487 20.1424 31.8513 20.136C31.8667 20.0994 31.8767 20.0615 31.8912 20.0247C31.949 19.8769 32.0035 19.7286 32.0468 19.5764C32.0494 19.5684 32.0549 19.5623 32.0573 19.5541L32.0589 19.5492C32.0756 19.4895 32.0846 19.4282 32.0989 19.368C32.1302 19.2384 32.1619 19.1097 32.1844 18.9787H32.1847L32.1846 18.9768C32.195 18.9165 32.201 18.8562 32.2096 18.7957L32.214 18.7826V18.7817L32.2144 18.7793C32.2234 18.7142 32.2319 18.6491 32.2396 18.584L32.241 18.5712L32.2444 18.543C32.2558 18.4334 32.2628 18.3254 32.2693 18.2165C32.2698 18.2104 32.2735 18.2053 32.2738 18.199C32.2779 18.1356 32.2807 18.0721 32.2832 18.0086L32.2838 17.9767L32.2848 17.9329L32.2866 17.8573C32.287 17.8297 32.2883 17.8021 32.2884 17.7745V17.7677L32.2881 17.7665C32.2881 17.7456 32.2866 17.7257 32.2866 17.7049L32.2896 17.6912C32.2899 17.682 32.2856 17.6728 32.2854 17.6634L32.2844 17.625C32.2833 17.4928 32.2809 17.3653 32.2746 17.241C32.2723 17.1991 32.2699 17.1583 32.2671 17.1168C32.2624 17.0423 32.2598 16.9626 32.2537 16.892C34.0482 17.846 35.2381 19.6425 35.4166 21.6666ZM31.6385 11.6674L31.6401 11.6671C31.7874 11.6666 31.935 11.6664 32.0833 11.6666C33.2551 11.7237 34.41 11.97 35.5033 12.3957C35.8358 12.5111 36.1016 12.7654 36.2317 13.0923C36.3632 13.4146 36.3483 13.7781 36.1905 14.0884C35.9577 14.5531 35.455 14.818 34.9402 14.7476C33.5852 14.4707 32.1792 14.5874 30.8884 15.0837L30.8846 15.0851L30.8773 15.0877C30.7786 15.1396 30.6915 15.2112 30.6214 15.2979C30.6138 15.3069 30.6018 15.3104 30.5945 15.3197C30.5844 15.3325 30.5836 15.3495 30.5743 15.3628C30.5193 15.4411 30.4785 15.5283 30.4535 15.6207C30.4484 15.6397 30.4395 15.6563 30.4357 15.6754C30.4155 15.7723 30.4129 15.872 30.428 15.9699L30.5728 16.8333C30.5815 16.9097 30.5884 16.998 30.5957 17.0842C30.601 17.1512 30.6061 17.218 30.6099 17.2876C30.6142 17.3612 30.6171 17.4372 30.6194 17.5151C30.6229 17.666 30.6226 17.82 30.616 17.9767C30.6147 18.0064 30.6136 18.0361 30.6121 18.0659C30.6019 18.257 30.5818 18.4476 30.5519 18.6366L30.5463 18.6651C30.5164 18.8409 30.475 19.0148 30.4224 19.1853C30.4174 19.2017 30.4118 19.2178 30.4064 19.2342C30.3982 19.2591 30.3887 19.2835 30.3799 19.3082C30.3337 19.44 30.278 19.5684 30.2133 19.6923C30.1882 19.74 30.164 19.7882 30.1361 19.8339C30.051 19.9805 29.9487 20.1163 29.8314 20.2386L29.8278 20.2432L29.8147 20.2582C29.7061 20.368 29.6044 20.4842 29.51 20.6063L29.5051 20.6119L29.5044 20.6137L29.4989 20.6199C29.4536 20.6265 29.408 20.6328 29.3621 20.6391C28.9348 20.6967 28.4881 20.7435 28.0163 20.775C27.9538 20.7792 27.8885 20.7814 27.8252 20.7852C27.321 20.8147 26.7989 20.8334 26.25 20.8334C26.0747 20.8334 25.8883 20.8203 25.698 20.801C25.6082 20.7917 25.514 20.777 25.4209 20.7637C25.3202 20.7495 25.2198 20.7355 25.1176 20.7174C25.0029 20.6968 24.8867 20.6726 24.7701 20.6471C24.6891 20.6294 24.6082 20.6114 24.5272 20.5917C24.3948 20.5594 24.2627 20.5245 24.1309 20.4872C24.0775 20.4721 24.025 20.4563 23.9724 20.4405C23.3478 20.2627 22.749 20.004 22.1913 19.6711C22.0893 19.5653 21.9799 19.4668 21.8641 19.3763C21.8618 19.3471 21.8613 19.3177 21.8626 19.2884C21.8653 19.2703 21.8755 19.2552 21.8771 19.2366C21.9209 18.8994 22.0124 18.5702 22.1489 18.2588C22.1568 18.2396 22.164 18.2212 22.1722 18.2016C22.2423 18.0325 22.3269 17.8522 22.4198 17.6663C22.4425 17.621 22.4656 17.5753 22.4897 17.5289C22.5909 17.3337 22.7013 17.1327 22.8252 16.925L22.8573 16.8721C23.327 16.0995 23.8627 15.3691 24.4584 14.6889C24.4788 14.6656 24.4998 14.6423 24.5205 14.619C24.7287 14.3833 24.945 14.15 25.172 13.9232L25.173 13.9221C25.3927 13.704 25.6237 13.4978 25.8651 13.3042C25.9081 13.2697 25.951 13.2316 25.9939 13.1985C26.1846 13.0522 26.3824 12.9156 26.5868 12.7891C26.6695 12.7374 26.7523 12.685 26.8351 12.638C27.0066 12.5402 27.1787 12.4539 27.3511 12.3749C27.4568 12.3265 27.5627 12.2812 27.6687 12.2391C27.832 12.1746 27.9959 12.1151 28.1608 12.0644C28.2652 12.0321 28.3698 12.0044 28.4744 11.9771C28.6521 11.9313 28.8302 11.8881 29.0107 11.855C29.088 11.8406 29.1656 11.8298 29.243 11.8175C29.4548 11.7846 29.6674 11.7546 29.884 11.7349C29.9172 11.7318 29.9507 11.7301 29.984 11.7272C30.5174 11.6826 31.0661 11.6694 31.6385 11.6674ZM17.9167 16.7414C17.9167 11.8017 18.7981 8.27224 20.5363 6.25242C20.7195 6.04002 20.7832 5.74969 20.7061 5.48016L19.9158 2.71485C19.8351 2.43155 19.9903 2.13467 20.269 2.03926C20.5477 1.94385 20.8523 2.0834 20.962 2.35684L21.6892 4.17402C21.7713 4.37939 21.9317 4.54364 22.135 4.63066C22.3383 4.71767 22.5679 4.7203 22.7731 4.63788C23.3768 4.40214 24.0116 4.25595 24.6575 4.2041C25.0873 4.16562 25.4167 3.80556 25.4168 3.37402V2.5C25.4168 2.03975 25.7898 1.66671 26.2501 1.66671C26.7103 1.66671 27.0834 2.03975 27.0834 2.5V3.67754C27.0835 4.04863 27.3288 4.37499 27.6852 4.47831C29.8173 5.09433 31.2501 6.64383 31.2501 8.33327C31.2431 8.89938 31.1635 9.46227 31.0132 10.0081L30.9982 10.0087C30.4367 10.0173 29.876 10.0557 29.3186 10.1238C29.2812 10.1285 29.2437 10.1324 29.2063 10.1375C28.97 10.17 28.7322 10.2122 28.4935 10.2621C28.4097 10.2794 28.3258 10.2981 28.2422 10.3177C28.0262 10.369 27.8096 10.4269 27.5924 10.4962C27.4922 10.528 27.3922 10.5661 27.2921 10.6019C27.1375 10.6577 26.9827 10.7192 26.8277 10.7862C26.6966 10.8425 26.5656 10.9024 26.4347 10.9671C26.257 11.0548 26.0792 11.1511 25.9014 11.2559C25.8492 11.2867 25.797 11.3085 25.7448 11.3407C25.9812 10.6291 26.3871 9.99986 27.0835 9.99986C27.5437 9.99986 27.9168 9.62672 27.9168 9.16657C27.9168 8.70632 27.5436 8.33327 27.0835 8.33327C24.6082 8.33327 23.8406 11.1136 23.7582 12.9894C23.6558 13.0963 23.5536 13.2051 23.4508 13.3183C23.3814 13.3945 23.3135 13.4707 23.2455 13.548C23.1317 13.6776 23.0189 13.8103 22.9066 13.9463C22.8303 14.0384 22.7535 14.1295 22.6795 14.2226C22.5289 14.4112 22.3815 14.6038 22.237 14.8005C22.2029 14.847 22.1703 14.8933 22.1369 14.9399C21.3562 15.9623 20.7544 17.1097 20.3573 18.3333H19.8435C19.8224 18.3256 19.7978 18.3175 19.7766 18.3098C19.6672 18.2701 19.5528 18.2308 19.4407 18.1916C19.2908 18.1391 19.1483 18.0881 18.9899 18.033C18.6558 17.9178 18.3023 17.7956 17.9347 17.6609L17.9169 17.6543V16.7414H17.9167ZM9.77264 1.66671H13.0449C13.8452 1.67061 14.5833 2.09913 14.9834 2.79219C15.8117 4.22294 16.2486 5.84676 16.25 7.49998V16.1246C15.828 16.2615 15.4513 16.4017 15.1007 16.5527C14.0341 16.4697 12.9709 16.7496 12.0835 17.3471V7.49998C12.0835 5.28641 10.8172 3.13398 9.77264 1.66671ZM10.5767 35.9082L10.5717 35.9206C10.3826 36.3727 10.1718 36.5903 9.81209 36.6445C9.80633 36.6453 9.80194 36.6498 9.79627 36.6508C9.72577 36.6609 9.65467 36.6662 9.58348 36.6666C9.54618 36.6666 9.50897 36.6691 9.47196 36.6739C9.23797 36.1864 8.75009 34.5272 8.75009 29.1667C8.75009 23.8072 10.4413 21.0445 11.8039 19.6861C11.8134 19.6776 11.826 19.6746 11.8351 19.6655C13.1681 18.3504 14.46 18.0876 14.9601 18.2276C14.9719 18.231 14.9843 18.2284 14.9962 18.2312C15.0107 18.2363 15.0325 18.2397 15.0439 18.2454C16.1417 18.7766 17.2749 19.2312 18.4354 19.6061C18.5776 19.655 18.6971 19.698 18.8267 19.7435C18.9522 19.7873 19.0789 19.8317 19.1982 19.8749C19.6867 20.0348 20.1566 20.2472 20.5994 20.5084C20.6219 20.5342 20.6363 20.5646 20.6609 20.5892C20.7641 20.6849 20.8733 20.7739 20.9877 20.8558C21.0287 20.9031 21.0658 20.9537 21.0986 21.007C21.1055 21.0191 21.1116 21.0332 21.1182 21.0462C21.1545 21.1202 21.1825 21.1979 21.2018 21.278C21.2069 21.2987 21.2138 21.3159 21.2182 21.3382C21.2397 21.4463 21.2503 21.5563 21.25 21.6666C21.25 24.5507 16.6114 28.3406 14.1191 30.3767C13.333 31.0188 12.7121 31.5258 12.3275 31.9107C12.2244 32.0139 12.1272 32.123 12.0366 32.2374C12.0283 32.248 12.0217 32.2593 12.0135 32.2699C11.4825 33.0406 11.1104 33.9095 10.9192 34.8257C10.8262 35.1929 10.7119 35.5543 10.5767 35.9082ZM16.25 46.2498C16.2489 47.3999 15.3168 48.3319 14.1668 48.333C13.0167 48.3319 12.0846 47.3999 12.0835 46.2498V42.448C13.2881 43.772 14.6944 44.8976 16.2501 45.7831V46.2498H16.25ZM20 48.333C19.0028 48.3316 18.1461 47.6243 17.9561 46.6453C19.0511 47.1379 20.1864 47.5355 21.3497 47.8333C20.9747 48.1571 20.4954 48.3345 20 48.333ZM29.6054 47.1132C27.9488 46.8096 26.2676 46.6601 24.5833 46.6665C24.016 46.6502 23.4512 46.5851 22.8951 46.4719C22.8876 46.4703 22.8819 46.4644 22.8743 46.463C20.9895 46.0936 19.1706 45.4438 17.4785 44.5351C17.2521 44.4133 17.0342 44.2842 16.8169 44.1547C16.7236 44.0988 16.6303 44.045 16.5372 43.9868C16.3573 43.8748 16.1827 43.7582 16.0092 43.6407C15.8675 43.5446 15.7266 43.4454 15.5865 43.3431C15.4332 43.2317 15.28 43.1203 15.1323 43.0044C14.9575 42.8676 14.7865 42.7214 14.6154 42.5749C14.4002 42.39 14.1918 42.2001 13.9898 42.0051C13.8525 41.873 13.7157 41.7403 13.582 41.6012C13.4339 41.4465 13.29 41.2886 13.1503 41.1275C13.0522 41.0157 12.9574 40.8988 12.8621 40.7827C12.5945 40.4553 12.3425 40.1166 12.1064 39.7666C11.7053 39.1847 11.3507 38.5721 11.0459 37.9345C11.0624 37.9237 11.0751 37.9094 11.0913 37.8982C11.1944 37.8287 11.2917 37.751 11.3822 37.6657C11.4313 37.6187 11.4749 37.5675 11.5197 37.5169C11.5835 37.4461 11.6434 37.372 11.6995 37.2948C11.7369 37.2427 11.7743 37.1912 11.8085 37.1368C11.8669 37.044 11.92 36.9477 11.97 36.8492C12.0175 36.7561 12.0611 36.6621 12.1022 36.5659C12.1341 36.4911 12.1665 36.4167 12.1951 36.3406C12.2342 36.2367 12.2697 36.134 12.3035 36.0298L12.323 35.9694C12.3991 35.7296 12.4679 35.4917 12.5286 35.2688C12.6625 34.6665 12.8754 34.0847 13.1617 33.5382C13.2577 33.375 13.3733 33.2243 13.506 33.0894C13.8315 32.7639 14.4533 32.2561 15.1735 31.6677C15.3528 31.5212 15.5381 31.3697 15.7269 31.2147C16.0495 32.4516 16.2251 33.7222 16.2501 35.0002C16.1424 36.6503 16.9626 38.2229 18.3774 39.079C18.4916 39.1363 18.6178 39.1661 18.7456 39.1661C19.1282 39.1643 19.4608 38.9027 19.5525 38.5312C19.6442 38.1598 19.4716 37.7734 19.1338 37.5939C18.4833 37.1616 18.0582 36.463 17.9734 35.6866C18.5038 35.7894 19.0432 35.8387 19.5834 35.8336C20.0437 35.8338 20.4169 35.461 20.4172 35.0007C20.4175 34.5405 20.0446 34.1672 19.5843 34.1669C19.0069 34.1767 18.4315 34.094 17.8802 33.9219C17.8777 33.9138 17.8719 33.9074 17.8692 33.8994C17.7524 32.5906 17.5062 31.2966 17.1341 30.0364L17.1965 29.9822C17.3523 29.8481 17.508 29.714 17.6645 29.576C17.7432 29.5066 17.8214 29.4347 17.9001 29.3644C18.0373 29.2417 18.1744 29.1197 18.3109 28.9943C18.3951 28.9168 18.4778 28.8372 18.5616 28.7586C18.6908 28.6376 18.8205 28.5172 18.9481 28.3939C19.0358 28.3091 19.1207 28.2222 19.2074 28.1365C19.3285 28.0165 19.4503 27.897 19.5688 27.7753C19.6558 27.6858 19.739 27.5946 19.8242 27.5043L19.8444 27.483C19.9971 28.0215 20.2772 28.5154 20.6611 28.9228C21.0519 29.4828 21.2579 30.1508 21.2502 30.8336C21.2502 31.2939 21.6234 31.6669 22.0835 31.6669C22.5438 31.6669 22.9168 31.2939 22.9168 30.8336C22.9168 30.8017 22.9144 30.7206 22.9092 30.6194C23.1715 30.7486 23.4579 30.8215 23.7501 30.8336C24.2118 30.8343 24.5874 30.4621 24.5907 30.0003C24.5922 29.7801 24.5058 29.5685 24.3507 29.4123C24.1956 29.256 23.9846 29.168 23.7644 29.1678C23.0373 28.8227 22.3841 28.34 21.8408 27.7462L21.8394 27.7445C21.4482 27.1839 21.2422 26.5148 21.2502 25.8312L21.2484 25.8222C21.3197 25.7255 21.3842 25.6276 21.4521 25.5302C21.5362 25.4095 21.6221 25.2891 21.7005 25.1677C21.7676 25.0636 21.8271 24.9591 21.8896 24.8546C21.9618 24.734 22.0357 24.6136 22.1014 24.4924C22.1591 24.3858 22.2084 24.2789 22.2608 24.1721C22.3195 24.052 22.38 23.9324 22.4316 23.8121C22.478 23.7038 22.5152 23.5953 22.5555 23.4868C22.5999 23.3673 22.6459 23.2477 22.6823 23.1279C22.7156 23.0188 22.739 22.9098 22.7654 22.8006C22.7942 22.6811 22.8246 22.5617 22.8448 22.4423C22.8634 22.3326 22.8715 22.2232 22.8823 22.1138C22.8912 22.0243 22.9095 21.9347 22.9131 21.8453C22.9782 21.8687 23.0477 21.8866 23.1138 21.9092C23.211 21.942 23.3079 21.9718 23.4064 22.0023C23.5888 22.0591 23.7691 22.1129 23.9544 22.1612C24.0297 22.1808 24.1032 22.1967 24.1783 22.2147C24.3764 22.2624 24.5719 22.3076 24.7677 22.3439C24.855 22.3602 24.937 22.3701 25.0227 22.384C25.1946 22.4115 25.3663 22.4404 25.5317 22.4576C25.7702 22.4845 26.0099 22.4988 26.2499 22.5005C26.6768 22.5005 27.0884 22.4891 27.492 22.472C27.6131 22.4668 27.7305 22.4594 27.8495 22.4527C28.1449 22.4362 28.4331 22.4149 28.7141 22.389C28.782 22.3826 28.8559 22.3805 28.9229 22.3735L28.9238 22.3781C28.9377 22.5267 28.9669 22.6733 29.011 22.8158C29.0176 22.8376 29.0247 22.8593 29.032 22.8809C29.0487 22.9307 29.0596 22.9811 29.08 23.0303C29.1073 23.0959 29.1487 23.1552 29.1818 23.2182C29.1969 23.2472 29.2043 23.2775 29.2208 23.3061C29.2312 23.3242 29.2464 23.34 29.2573 23.3579C29.3086 23.4401 29.3646 23.5194 29.4251 23.5952C29.4631 23.6438 29.5017 23.6918 29.5436 23.7383C29.6088 23.8102 29.6775 23.8789 29.7496 23.9439C29.8 23.9897 29.8523 24.0337 29.9065 24.0768C29.982 24.1368 30.0595 24.1945 30.1422 24.2492C30.2058 24.2914 30.2723 24.3304 30.3399 24.3693C30.4238 24.4176 30.508 24.4649 30.5977 24.508C30.6755 24.5455 30.7573 24.5784 30.8392 24.6119C30.928 24.6481 31.0156 24.6848 31.1089 24.7162C31.204 24.7482 31.3037 24.7739 31.403 24.8007C31.4917 24.8245 31.5782 24.8509 31.6701 24.8704C31.7168 24.8803 31.7646 24.8881 31.8121 24.8969C31.0806 27.0905 30.6122 29.3631 30.4168 31.6671C30.4174 31.861 30.4304 32.0545 30.4556 32.2467C30.3137 32.6656 29.6296 34.1671 28.7501 34.1671C28.2898 34.1671 27.9168 34.5402 27.9168 35.0004C27.9168 35.4607 28.2898 35.8337 28.7501 35.8337C29.7509 35.7836 30.6641 35.2474 31.1956 34.3978C31.3852 34.7568 31.5884 35.1008 31.7856 35.4292C32.4171 36.2779 32.808 37.2814 32.9167 38.3337C32.8424 40.0289 32.2562 41.6617 31.2354 43.0171C30.3545 44.2223 29.7936 45.6318 29.6054 47.1132ZM36.2499 48.333C34.9029 48.2818 33.5669 48.0678 32.2712 47.6958C31.9417 47.6164 31.6006 47.5355 31.2526 47.4552C31.3748 46.1594 31.8601 44.9244 32.6529 43.8922C33.4912 42.6838 34.0938 41.3279 34.4291 39.8959C35.1344 40.455 35.7454 41.1234 36.2389 41.8761C36.2238 42.4887 36.022 43.0822 35.6607 43.5773C35.447 43.7872 35.3623 44.0956 35.439 44.385C35.5157 44.6746 35.7417 44.9006 36.0313 44.9773C36.3208 45.054 36.6291 44.9693 36.839 44.7556C37.1451 44.4347 37.3823 44.0546 37.5359 43.6384C37.8696 43.9459 38.2973 44.1319 38.7497 44.1664C39.1947 44.1663 39.5611 43.8167 39.5821 43.3721C39.6031 42.9276 39.2712 42.545 38.8282 42.503C38.7595 42.4794 38.3298 42.2964 37.8285 41.2937C36.9873 39.9409 35.8727 38.7787 34.5561 37.8818C34.3625 36.6916 33.9039 35.5601 33.2143 34.5709C32.5827 33.7222 32.1919 32.7188 32.0832 31.6664C32.0928 31.1634 32.141 30.6618 32.2273 30.1661C33.0034 31.7031 34.3897 32.8432 36.0476 33.3078C37.0322 33.5544 37.7785 34.8476 37.9819 35.3237C38.1609 35.7477 38.6496 35.9465 39.0736 35.7676C39.4977 35.5887 39.6965 35.0999 39.5176 34.6759C39.4109 34.4228 38.4161 32.1825 36.452 31.6917C33.6806 30.9984 32.9075 27.3713 32.8997 27.3346C32.8945 27.3085 32.8776 27.2887 32.87 27.2636C33.1182 26.3294 33.3677 25.5026 33.5293 24.986C33.9915 24.9665 34.4498 24.8918 34.8943 24.7634C34.9272 24.7537 34.9601 24.7448 34.9928 24.7344C35.06 24.7123 35.1261 24.6858 35.1926 24.6598C35.5158 24.5427 35.8169 24.3718 36.0832 24.1543C39.4442 29.5945 41.2496 36.2441 41.2496 39.9997C41.2499 47.2507 38.1172 48.333 36.2499 48.333Z" fill="#00AAC4"/>
</g>
<defs>
<clipPath id="clip0_1_963">
<rect width="50" height="50" fill="white"/>
</clipPath>
</defs>
</svg>
