<svg width="48" height="48" viewBox="0 0 48 48" fill="none" xmlns="http://www.w3.org/2000/svg">
<g clip-path="url(#clip0_1_1184)">
<path d="M35.1998 4.80004C33.661 4.79019 32.1736 5.35278 31.0265 6.3785C31.0803 5.23363 31.1231 4.19235 31.1514 3.29489C31.2031 1.53146 29.8174 0.0591175 28.0541 0.00380526C26.2907 -0.051507 24.8156 1.3313 24.7568 3.09445C24.7111 4.57963 24.6293 6.41806 24.5179 8.49865C24.2464 6.06041 23.923 3.91363 23.5575 2.19558C23.339 1.15618 22.5444 0.333804 21.513 0.0800237C20.4816 -0.17385 19.396 0.185679 18.7201 1.00496C18.1983 1.63392 17.9862 2.4637 18.1419 3.26592C18.7926 6.96481 19.2287 10.6983 19.4479 14.4476C18.4044 10.9929 15.9578 8.79986 12.7997 8.79986C4.78717 8.79986 -0.000244141 17.7483 -0.000244141 26.3998C-0.000244141 35.5583 3.46305 44.7997 11.1997 44.7997C16.8833 44.7997 18.3997 40.274 18.3997 37.5997C18.3504 36.0767 17.7945 34.6135 16.82 33.442C16.9061 32.2396 18.004 30.4434 19.853 28.434C19.8528 33.9202 19.4941 39.4005 18.7794 44.8399C18.6644 45.6309 18.8994 46.4327 19.4232 47.0364C19.9138 47.6041 20.6129 47.9497 21.3618 47.9947C22.1108 48.0397 22.8462 47.7803 23.4012 47.2754C24.0272 47.9161 24.9575 48.156 25.8153 47.8975C26.6731 47.6391 27.3161 46.9254 27.4841 46.0454C28.1737 42.482 28.9303 35.1931 29.5624 27.7803C30.3443 27.9354 31.1404 28.0074 31.9374 27.9952C31.9363 28.1936 31.9449 28.3719 31.9575 28.5184C30.5426 29.8425 29.6973 31.6643 29.5997 33.5996C29.5997 36.2738 31.1161 40.7996 36.7997 40.7996C44.5364 40.7996 47.9997 31.5582 47.9997 22.3997C47.9998 13.7484 43.2122 4.80004 35.1998 4.80004ZM19.7449 20.279C19.7657 20.8792 19.7836 21.4833 19.7987 22.0911C19.4382 22.2589 19.0497 22.3584 18.6529 22.3847C19.1562 21.7643 19.5278 21.0479 19.7449 20.279ZM19.8233 23.7968C19.8245 23.8748 19.8244 23.9533 19.8256 24.0314C19.7992 24.0331 19.7729 24.0363 19.7467 24.0409C18.5901 24.4536 17.4961 25.0241 16.4957 25.7362C16.4889 25.7193 16.4837 25.7015 16.4768 25.6847C16.4343 25.5803 16.3878 25.479 16.34 25.3793C16.3338 25.3665 16.3286 25.3529 16.3223 25.3402C16.1684 25.0276 15.991 24.7272 15.7918 24.4414L15.7874 24.4348C16.1807 24.281 16.5601 24.0942 16.9217 23.8761C17.8823 24.071 18.8747 24.0438 19.8233 23.7968ZM11.1999 43.1999C4.56874 43.1999 1.59997 34.762 1.59997 26.4C1.59997 18.5352 5.78898 10.4 12.8 10.4C16.6476 10.4 18.3999 14.5468 18.3999 18.3999C18.4588 19.9921 17.6708 21.4966 16.3284 22.3547C16.3224 22.3583 16.3151 22.3586 16.3093 22.3623C15.705 22.7517 15.038 23.0337 14.3378 23.1961C11.6993 23.1763 10.315 21.9602 9.57572 19.0057C9.50634 18.7286 9.29438 18.5095 9.01969 18.431C8.745 18.3524 8.44922 18.4265 8.24391 18.6251C8.0386 18.8238 7.95479 19.1168 8.02416 19.394C8.91263 22.9484 10.8305 24.6679 14.037 24.7881C14.6676 25.4504 15.0744 26.2939 15.1999 27.1998C15.1446 27.8608 14.7709 28.4534 14.1983 28.7882C12.7368 28.8242 11.3092 28.345 10.1655 27.4342C9.85247 27.1259 9.34931 27.1279 9.03872 27.4386C8.72813 27.7493 8.72607 28.2523 9.03431 28.5654C10.4261 29.7298 12.1818 30.3701 13.9964 30.3749C14.3892 31.0121 14.5442 31.7675 14.4339 32.5077C14.229 32.7751 13.4206 33.5998 11.1999 33.5998C9.39028 33.6035 7.58945 33.3477 5.85226 32.8405C5.43311 32.7014 4.98058 32.9282 4.84108 33.3472C4.70158 33.7661 4.92789 34.2189 5.34677 34.3588C7.24604 34.9246 9.21816 35.208 11.1998 35.1999C12.637 35.2937 14.06 34.866 15.2073 33.9954C15.2624 34.0602 15.3154 34.1191 15.3725 34.1889L15.3741 34.1902C16.2299 35.1274 16.7338 36.3324 16.7999 37.5997C16.7999 38.1729 16.6428 43.1999 11.1999 43.1999ZM15.9616 30.9761L15.9571 30.9595C15.9202 30.7841 15.8729 30.611 15.8153 30.4412C15.8014 30.3999 15.7863 30.3595 15.771 30.3182C15.7046 30.1336 15.6239 29.9545 15.5296 29.7824C16.2079 29.2274 16.6523 28.4373 16.7742 27.5694C17.6871 26.7855 18.724 26.159 19.8425 25.7156C19.8434 25.8561 19.8462 25.9962 19.8467 26.1368C18.3232 27.5522 17.0144 29.1826 15.9616 30.9761ZM23.0679 42.6118C23.0623 42.6616 23.0569 42.7126 23.0511 42.7622C23.0163 43.0596 22.9792 43.3474 22.9423 43.6357C22.9229 43.7864 22.9044 43.9398 22.8843 44.0885C22.8579 44.2847 22.8299 44.4727 22.8024 44.6643C22.7666 44.9142 22.7316 45.1667 22.6937 45.4105C22.6052 45.9836 22.1096 46.405 21.5296 46.3999C21.1856 46.4002 20.8584 46.2506 20.6336 45.9902C20.4122 45.7386 20.3131 45.4023 20.3625 45.071C22.2039 32.4441 21.5383 12.4258 19.7125 2.96301C19.6466 2.62954 19.7354 2.28426 19.9539 2.02392C20.2388 1.67808 20.6971 1.52649 21.132 1.6342C21.567 1.74192 21.9015 2.08973 21.9921 2.52858C23.0458 8.46311 23.6311 14.4712 23.7429 20.4976V20.4996C24.0363 27.8771 23.8108 35.2659 23.0679 42.6118ZM29.3129 8.59896C28.6511 9.88708 28.2388 11.2888 28.0982 12.7302C28.0907 12.796 28.0847 12.862 28.0781 12.9282C28.0317 13.4059 27.9999 13.8933 27.9999 14.3999C28.0009 14.6537 28.0151 14.9073 28.0424 15.1596C28.05 15.2336 28.061 15.306 28.0707 15.379C28.0954 15.5601 28.1264 15.736 28.1641 15.9066C28.1796 15.9774 28.1931 16.0491 28.2108 16.1186C28.2645 16.3304 28.3296 16.5391 28.4057 16.7438C28.4329 16.817 28.4657 16.887 28.4957 16.9588C28.5547 17.099 28.6174 17.2351 28.685 17.3665C28.71 17.4155 28.728 17.4681 28.7545 17.5162C28.0639 27.3686 26.9131 40.5748 25.9139 45.7411C25.8379 46.125 25.5005 46.4011 25.1093 46.3997C24.8723 46.4017 24.6465 46.2986 24.4929 46.1181C24.3359 45.937 24.267 45.6958 24.3046 45.4592C24.3212 45.3503 24.336 45.2346 24.3523 45.1243C24.3936 44.8435 24.4347 44.5625 24.4734 44.2743C24.485 44.1876 24.4959 44.0973 24.5071 44.0098C24.5524 43.6636 24.5967 43.3146 24.6385 42.9586C24.6424 42.9249 24.646 42.8899 24.6499 42.8562C24.8024 41.5435 24.9313 40.1683 25.0383 38.7462L25.0385 38.7434C25.0743 38.2668 25.1077 37.7853 25.1384 37.299C25.1424 37.2382 25.1458 37.1766 25.1496 37.1156C25.1758 36.6937 25.2004 36.2689 25.2231 35.8412C25.2303 35.7054 25.2368 35.5679 25.2436 35.4313C25.2613 35.081 25.278 34.7299 25.293 34.3762C25.3025 34.1582 25.311 33.9384 25.3196 33.7183C25.3297 33.4536 25.3393 33.1882 25.3485 32.9222C25.3588 32.6178 25.3683 32.3115 25.3769 32.0036C25.3817 31.8308 25.3863 31.6577 25.3906 31.4846C25.4006 31.0948 25.4092 30.7028 25.4164 30.3084C25.4178 30.2352 25.419 30.1619 25.4203 30.0886C25.4736 26.9974 25.4503 23.7679 25.3428 20.4893C25.8545 13.6011 26.2334 7.11903 26.3569 3.14367C26.3865 2.26251 27.1239 1.57167 28.005 1.59933C28.8863 1.62699 29.5787 2.36283 29.553 3.24407C29.5062 4.69954 29.4254 6.50084 29.3129 8.59896ZM29.6984 26.163C29.7461 25.5876 29.7928 25.0137 29.8386 24.441C30.2979 24.2084 30.7975 24.066 31.3104 24.0215C31.5137 24.7105 31.9174 25.3234 32.4701 25.7823C32.3619 25.9791 32.2716 26.1852 32.1999 26.3981C31.3594 26.4296 30.5184 26.3506 29.6984 26.163ZM29.9783 22.6678C30.0676 21.5148 30.153 20.3785 30.2332 19.2754C30.8274 19.7641 31.4955 20.1554 32.2124 20.4348C31.7829 21.0315 31.4701 21.704 31.2904 22.417C30.844 22.445 30.4032 22.5293 29.9783 22.6678ZM36.7998 39.1999C31.3569 39.1999 31.1998 34.1729 31.1998 33.5999C31.2776 32.2452 31.8415 30.9641 32.788 29.9917C33.9357 30.8652 35.3606 31.2943 36.7999 31.1999C38.7815 31.2081 40.7538 30.9247 42.6529 30.3589C43.0721 30.2191 43.2986 29.7659 43.1588 29.3468C43.019 28.9276 42.5658 28.7011 42.1467 28.8409C40.4103 29.35 38.6093 29.6055 36.7999 29.5999C34.5879 29.5999 33.7751 28.7801 33.5662 28.5092C33.4556 27.7685 33.6104 27.0126 34.0033 26.375C35.8179 26.3701 37.5736 25.7299 38.9654 24.5655C39.2753 24.2537 39.2755 23.7503 38.966 23.4383C38.6564 23.1263 38.153 23.1226 37.8388 23.43C36.6948 24.3433 35.2654 24.8242 33.8019 24.7882C33.2291 24.4536 32.8552 23.8609 32.7999 23.1999C32.9254 22.294 33.3322 21.4504 33.9628 20.7882C37.1692 20.668 39.0871 18.9484 39.9756 15.3941C40.045 15.117 39.9612 14.8238 39.7559 14.6252C39.5506 14.4265 39.2548 14.3526 38.9801 14.431C38.7054 14.5095 38.4935 14.7287 38.4241 15.0058C37.6842 17.963 36.2981 19.179 33.6549 19.1966C32.2637 18.9153 31.0405 18.0944 30.253 16.9136L30.2521 16.9117C30.035 16.5529 29.8716 16.1642 29.767 15.7581C29.7453 15.6751 29.7338 15.5821 29.716 15.4952C29.69 15.3675 29.6598 15.242 29.6433 15.1091C29.6141 14.8739 29.5996 14.637 29.5998 14.4C29.5998 13.957 29.6276 13.5265 29.6694 13.1037C29.6792 13.0073 29.69 12.9115 29.7021 12.8155C29.7419 12.4907 29.7982 12.1758 29.8626 11.8661C29.8908 11.7311 29.9178 11.5959 29.9507 11.4629C30.0297 11.1447 30.1232 10.8372 30.2287 10.5393C30.2589 10.4525 30.2878 10.3649 30.3204 10.2796C30.4525 9.93452 30.6071 9.59852 30.7831 9.27358C31.5761 7.54259 33.2959 6.42369 35.1997 6.39997C42.2106 6.39997 46.3997 14.5352 46.3997 22.3999C46.3997 30.762 43.4311 39.1999 36.7998 39.1999Z" fill="#00AAC4"/>
</g>
<defs>
<clipPath id="clip0_1_1184">
<rect width="48" height="48" fill="white"/>
</clipPath>
</defs>
</svg>
