<svg width="43" height="43" viewBox="0 0 43 43" fill="none" xmlns="http://www.w3.org/2000/svg">
<g opacity="0.9">
<path d="M40.3135 30.6553V11.4229C40.3135 9.5668 38.8102 8.06348 36.9541 8.06348H33.5947V4.7041C33.5947 2.84805 32.0914 1.34473 30.2353 1.34473H22.1728C20.3168 1.34473 18.8135 2.84805 18.8135 4.7041V8.06348H15.4541C13.598 8.06348 12.0947 9.5668 12.0947 11.4229V31.9738L11.8176 32.251H8.06348V31.5791C8.06348 31.2096 7.76113 30.9072 7.3916 30.9072H2.0166C1.64707 30.9072 1.34473 31.2096 1.34473 31.5791V40.9854C1.34473 41.3549 1.64707 41.6572 2.0166 41.6572H7.3916C7.76113 41.6572 8.06348 41.3549 8.06348 40.9854H30.2353C30.3529 40.9854 30.4621 40.9518 30.5629 40.9014L40.2295 35.4592C41.1029 34.9637 41.6488 34.0314 41.6488 33.0236C41.6488 32.0158 41.1197 31.1424 40.3135 30.6553ZM6.71973 40.3135H2.68848V32.251H6.71973V40.3135ZM20.1572 4.7041C20.1572 3.59551 21.0643 2.68848 22.1728 2.68848H30.2353C31.3439 2.68848 32.251 3.59551 32.251 4.7041V8.06348H30.9072V4.7041C30.9072 4.33457 30.6049 4.03223 30.2353 4.03223H22.1728C21.8033 4.03223 21.501 4.33457 21.501 4.7041V8.06348H20.1572V4.7041ZM22.8447 8.06348V5.37598H29.5635V8.06348H22.8447ZM13.4385 11.4229C13.4385 10.3143 14.3455 9.40723 15.4541 9.40723H36.9541C38.0627 9.40723 38.9697 10.3143 38.9697 11.4229V30.2437C38.9361 30.2437 38.9025 30.2354 38.8689 30.2354H38.7682C38.365 30.2354 37.9619 30.3277 37.6008 30.4957L29.4123 34.2666H26.3637C26.6828 33.7879 26.876 33.2084 26.876 32.5869C26.876 30.924 25.5154 29.5635 23.8525 29.5635H14.7822C14.6059 29.5635 14.4295 29.6307 14.3035 29.7566L13.4385 30.6301V11.4229ZM39.5744 34.2918L30.059 39.6416H8.06348V33.5947H12.0947C12.2711 33.5947 12.4475 33.5275 12.5734 33.4016L15.0678 30.9072H23.8525C24.7764 30.9072 25.5322 31.6631 25.5322 32.5869C25.5322 33.5107 24.7764 34.2666 23.8525 34.2666H18.1416V35.6104H23.8525H29.5635C29.6643 35.6104 29.7566 35.5936 29.849 35.5516L38.1635 31.7135C38.3482 31.6295 38.5582 31.5791 38.7682 31.5791H38.8689C39.6668 31.5791 40.3135 32.2258 40.3135 33.0236C40.3135 33.5527 40.0279 34.0314 39.5744 34.2918Z" fill="white"/>
<path d="M7.39062 41.6982H2.01562C1.6209 41.6982 1.30176 41.3791 1.30176 40.9844V31.5781C1.30176 31.1834 1.6209 30.8643 2.01562 30.8643H7.39062C7.78535 30.8643 8.10449 31.1834 8.10449 31.5781V32.208H11.7998L12.0518 31.9561V11.4219C12.0518 9.54902 13.5803 8.02051 15.4531 8.02051H18.7705V4.70312C18.7705 2.83027 20.299 1.30176 22.1719 1.30176H30.2344C32.1072 1.30176 33.6357 2.83027 33.6357 4.70312V8.02051H36.9531C38.826 8.02051 40.3545 9.54902 40.3545 11.4219V30.6291C41.1943 31.1498 41.6982 32.0484 41.6982 33.0311C41.6982 34.0557 41.1439 34.9963 40.2537 35.5002L30.5871 40.9424C30.4779 41.0012 30.3604 41.0348 30.2344 41.0348H8.10449C8.0793 41.4043 7.76855 41.6982 7.39062 41.6982ZM2.01562 30.9482C1.67129 30.9482 1.38574 31.2338 1.38574 31.5781V40.9844C1.38574 41.3287 1.67129 41.6143 2.01562 41.6143H7.39062C7.73496 41.6143 8.02051 41.3287 8.02051 40.9844V40.9424H30.2344C30.3436 40.9424 30.4527 40.9172 30.5451 40.8584L40.2117 35.4162C41.0768 34.9291 41.6143 34.0137 41.6143 33.0227C41.6143 32.0652 41.1188 31.1918 40.2873 30.6795L40.2705 30.6711V11.4219C40.2705 9.59102 38.784 8.10449 36.9531 8.10449H33.5518V4.70312C33.5518 2.87227 32.0652 1.38574 30.2344 1.38574H22.1719C20.341 1.38574 18.8545 2.87227 18.8545 4.70312V8.10449H15.4531C13.6223 8.10449 12.1357 9.59102 12.1357 11.4219V31.9896L11.8334 32.292H8.02051V31.5781C8.02051 31.2338 7.73496 30.9482 7.39062 30.9482H2.01562ZM6.76074 40.3545H2.64551V32.208H6.76074V40.3545ZM2.72949 40.2705H6.67676V32.292H2.72949V40.2705ZM30.0664 39.6826H8.02051V33.5518H12.0938C12.2617 33.5518 12.4213 33.4846 12.5389 33.367L15.0416 30.8643H23.8516C24.8006 30.8643 25.5732 31.6369 25.5732 32.5859C25.5732 33.535 24.8006 34.3076 23.8516 34.3076H18.1826V35.5674H29.5625C29.6549 35.5674 29.7473 35.5506 29.8229 35.5086L38.1373 31.6705C38.3305 31.5781 38.5488 31.5361 38.7588 31.5361H38.8596C39.6826 31.5361 40.3461 32.208 40.3461 33.0227C40.3461 33.5602 40.0521 34.0557 39.5902 34.3244L30.0664 39.6826ZM8.10449 39.5986H30.0496L39.5566 34.2488C40.0018 33.9969 40.2705 33.5266 40.2705 33.0227C40.2705 32.25 39.6406 31.6201 38.868 31.6201H38.7672C38.5656 31.6201 38.3641 31.6621 38.1793 31.7461L29.8648 35.5842C29.7725 35.6262 29.6717 35.6514 29.5625 35.6514H18.0986V34.2236H23.8516C24.7586 34.2236 25.4893 33.493 25.4893 32.5859C25.4893 31.6789 24.7586 30.9482 23.8516 30.9482H15.0752L12.5977 33.4258C12.4633 33.5602 12.2785 33.6357 12.0938 33.6357H8.10449V39.5986ZM29.4197 34.3076H26.2871L26.3291 34.2404C26.6566 33.7449 26.833 33.1738 26.833 32.5859C26.833 30.9398 25.4977 29.6045 23.8516 29.6045H14.7812C14.6133 29.6045 14.4537 29.6717 14.3361 29.7893L13.3955 30.7299V11.4219C13.3955 10.2881 14.3193 9.36426 15.4531 9.36426H36.9531C38.0869 9.36426 39.0107 10.2881 39.0107 11.4219V30.2848H38.9688C38.952 30.2848 38.9352 30.2848 38.9184 30.2764C38.9016 30.2764 38.8848 30.268 38.868 30.268H38.7672C38.3725 30.268 37.9693 30.352 37.6166 30.5199L29.4197 34.3076ZM26.4383 34.2236H29.4029L37.5746 30.4527C37.9441 30.2848 38.3557 30.1924 38.7588 30.1924H38.8596C38.8848 30.1924 38.9016 30.1924 38.9184 30.2008V11.4219C38.9184 10.3301 38.0365 9.44824 36.9447 9.44824H15.4531C14.3613 9.44824 13.4795 10.3301 13.4795 11.4219V30.5283L14.2773 29.7305C14.4117 29.5961 14.5965 29.5205 14.7812 29.5205H23.8516C25.5396 29.5205 26.917 30.8979 26.917 32.5859C26.917 33.1654 26.749 33.7281 26.4383 34.2236ZM32.292 8.10449H30.8643V4.70312C30.8643 4.35879 30.5787 4.07324 30.2344 4.07324H22.1719C21.8275 4.07324 21.542 4.35879 21.542 4.70312V8.10449H20.1143V4.70312C20.1143 3.56934 21.0381 2.64551 22.1719 2.64551H30.2344C31.3682 2.64551 32.292 3.56934 32.292 4.70312V8.10449ZM30.9482 8.02051H32.208V4.70312C32.208 3.61133 31.3262 2.72949 30.2344 2.72949H22.1719C21.0801 2.72949 20.1982 3.61133 20.1982 4.70312V8.02051H21.458V4.70312C21.458 4.3084 21.7771 3.98926 22.1719 3.98926H30.2344C30.6291 3.98926 30.9482 4.3084 30.9482 4.70312V8.02051ZM29.6045 8.10449H22.8018V5.33301H29.6045V8.10449ZM22.8857 8.02051H29.5205V5.41699H22.8857V8.02051Z" fill="white"/>
<path d="M26.2041 28.2197C30.6469 28.2197 34.2666 24.6 34.2666 20.1572C34.2666 15.7145 30.6469 12.0947 26.2041 12.0947C21.7613 12.0947 18.1416 15.7145 18.1416 20.1572C18.1416 24.6 21.7613 28.2197 26.2041 28.2197ZM26.2041 13.4385C29.9078 13.4385 32.9229 16.4535 32.9229 20.1572C32.9229 23.8609 29.9078 26.876 26.2041 26.876C22.5004 26.876 19.4854 23.8609 19.4854 20.1572C19.4854 16.4535 22.5004 13.4385 26.2041 13.4385Z" fill="white"/>
<path d="M26.2031 28.2607C21.7352 28.2607 18.0986 24.6242 18.0986 20.1562C18.0986 15.6883 21.7352 12.0518 26.2031 12.0518C30.6711 12.0518 34.3076 15.6883 34.3076 20.1562C34.3076 24.6242 30.6711 28.2607 26.2031 28.2607ZM26.2031 12.1357C21.7771 12.1357 18.1826 15.7303 18.1826 20.1562C18.1826 24.5822 21.7771 28.1768 26.2031 28.1768C30.6291 28.1768 34.2236 24.5822 34.2236 20.1562C34.2236 15.7303 30.6291 12.1357 26.2031 12.1357ZM26.2031 26.917C22.4742 26.917 19.4424 23.8852 19.4424 20.1562C19.4424 16.4273 22.4742 13.3955 26.2031 13.3955C29.932 13.3955 32.9639 16.4273 32.9639 20.1562C32.9639 23.8852 29.932 26.917 26.2031 26.917ZM26.2031 13.4795C22.5246 13.4795 19.5264 16.4777 19.5264 20.1562C19.5264 23.8348 22.5246 26.833 26.2031 26.833C29.8816 26.833 32.8799 23.8348 32.8799 20.1562C32.8799 16.4777 29.8816 13.4795 26.2031 13.4795Z" fill="white"/>
<path d="M22.1729 22.1729H24.1885V24.1885C24.1885 24.558 24.4908 24.8604 24.8604 24.8604H27.5479C27.9174 24.8604 28.2197 24.558 28.2197 24.1885V22.1729H30.2354C30.6049 22.1729 30.9072 21.8705 30.9072 21.501V18.8135C30.9072 18.4439 30.6049 18.1416 30.2354 18.1416H28.2197V16.126C28.2197 15.7564 27.9174 15.4541 27.5479 15.4541H24.8604C24.4908 15.4541 24.1885 15.7564 24.1885 16.126V18.1416H22.1729C21.8033 18.1416 21.501 18.4439 21.501 18.8135V21.501C21.501 21.8705 21.8033 22.1729 22.1729 22.1729ZM22.8447 19.4854H24.8604C25.2299 19.4854 25.5322 19.183 25.5322 18.8135V16.7979H26.876V18.8135C26.876 19.183 27.1783 19.4854 27.5479 19.4854H29.5635V20.8291H27.5479C27.1783 20.8291 26.876 21.1314 26.876 21.501V23.5166H25.5322V21.501C25.5322 21.1314 25.2299 20.8291 24.8604 20.8291H22.8447V19.4854Z" fill="white"/>
<path d="M27.5469 24.9014H24.8594C24.4646 24.9014 24.1455 24.5822 24.1455 24.1875V22.2139H22.1719C21.7771 22.2139 21.458 21.8947 21.458 21.5V18.8125C21.458 18.4178 21.7771 18.0986 22.1719 18.0986H24.1455V16.125C24.1455 15.7303 24.4646 15.4111 24.8594 15.4111H27.5469C27.9416 15.4111 28.2607 15.7303 28.2607 16.125V18.0986H30.2344C30.6291 18.0986 30.9482 18.4178 30.9482 18.8125V21.5C30.9482 21.8947 30.6291 22.2139 30.2344 22.2139H28.2607V24.1875C28.2607 24.5822 27.9416 24.9014 27.5469 24.9014ZM22.1719 18.1826C21.8275 18.1826 21.542 18.4682 21.542 18.8125V21.5C21.542 21.8443 21.8275 22.1299 22.1719 22.1299H24.2295V24.1875C24.2295 24.5318 24.515 24.8174 24.8594 24.8174H27.5469C27.8912 24.8174 28.1768 24.5318 28.1768 24.1875V22.1299H30.2344C30.5787 22.1299 30.8643 21.8443 30.8643 21.5V18.8125C30.8643 18.4682 30.5787 18.1826 30.2344 18.1826H28.1768V16.125C28.1768 15.7807 27.8912 15.4951 27.5469 15.4951H24.8594C24.515 15.4951 24.2295 15.7807 24.2295 16.125V18.1826H22.1719ZM26.917 23.5576H25.4893V21.5C25.4893 21.1557 25.2037 20.8701 24.8594 20.8701H22.8018V19.4424H24.8594C25.2037 19.4424 25.4893 19.1568 25.4893 18.8125V16.7549H26.917V18.8125C26.917 19.1568 27.2025 19.4424 27.5469 19.4424H29.6045V20.8701H27.5469C27.2025 20.8701 26.917 21.1557 26.917 21.5V23.5576ZM25.5732 23.4736H26.833V21.5C26.833 21.1053 27.1521 20.7861 27.5469 20.7861H29.5205V19.5264H27.5469C27.1521 19.5264 26.833 19.2072 26.833 18.8125V16.8389H25.5732V18.8125C25.5732 19.2072 25.2541 19.5264 24.8594 19.5264H22.8857V20.7861H24.8594C25.2541 20.7861 25.5732 21.1053 25.5732 21.5V23.4736Z" fill="white"/>
</g>
</svg>
