<svg width="48" height="48" viewBox="0 0 48 48" fill="none" xmlns="http://www.w3.org/2000/svg">
<g clip-path="url(#clip0_1_994)">
<path d="M37.6 19.1864C37.6 19.6282 37.2418 19.9864 36.8 19.9864C36.3582 19.9864 36 19.6282 36 19.1864C36 18.7446 36.3582 18.3864 36.8 18.3864C37.2418 18.3864 37.6 18.7446 37.6 19.1864Z" fill="#00AAC4"/>
<path d="M47.1999 46.3861H33.6001V39.9862C33.6001 37.3354 35.7493 35.1862 38.4 35.1862C41.0512 35.1862 43.2 37.3354 43.2 39.9862V43.1861C43.2 43.6279 43.5582 43.9861 44 43.9861C44.4417 43.9861 44.7999 43.6279 44.7999 43.1861V39.9862C44.7984 37.944 43.8203 36.0253 42.1679 34.8249C43.9644 30.1417 43.3359 24.8738 40.4879 20.7449C41.0199 19.4856 40.8687 18.0418 40.0879 16.92C41.2945 15.57 41.4437 13.5782 40.4519 12.0634L43.9039 8.61225C44.8437 9.53646 46.3527 9.52982 47.2843 8.59779C48.2159 7.66616 48.2218 6.15719 47.2976 5.21775L42.7722 0.689667C41.8328 -0.234543 40.3238 -0.228683 39.3918 0.703339C38.4598 1.63497 38.4535 3.14394 39.3777 4.08338L35.9266 7.5353C34.3399 6.49 32.238 6.70211 30.8923 8.0435L23.5384 15.3977C22.5888 14.4915 21.0947 14.4915 20.1451 15.3977C19.208 16.3348 19.208 17.854 20.1451 18.7914L21.8404 20.4879L19.0107 23.3168C18.2994 24.0359 18.115 25.1234 18.5498 26.0367L17.8803 26.707C16.942 27.646 16.9428 29.1679 17.8815 30.1058C18.8205 31.0441 20.342 31.0437 21.2803 30.1046L21.9498 29.4351C22.863 29.8792 23.958 29.6937 24.674 28.9734L27.4986 26.1465L29.1954 27.8433C29.7981 28.4671 30.6903 28.7171 31.5294 28.4976C32.3684 28.2781 33.0239 27.6226 33.2434 26.7836C33.4629 25.9445 33.2129 25.0523 32.5891 24.4496L34.5489 22.4902C35.077 22.8445 35.6825 23.0672 36.3145 23.1391C38.5867 26.1769 39.0254 30.2109 37.4594 33.6663C34.7325 34.0757 32.5735 36.1835 32.0993 38.8998C29.231 40.1385 25.9564 40.0135 23.1908 38.56C23.1908 38.503 23.1994 38.4471 23.1994 38.3893H25.5993C26.9247 38.3893 27.9993 37.3151 27.9993 35.9893C27.9993 34.6639 26.9247 33.5893 25.5993 33.5893H11.2003C9.87489 33.5893 8.80029 34.6639 8.80029 35.9893C8.80029 37.3151 9.87489 38.3893 11.2003 38.3893H13.6002C13.5983 40.0698 14.476 41.6283 15.9139 42.4979C17.3518 43.367 19.1396 43.4205 20.6267 42.6381C24.088 44.5791 28.1763 45.0728 32.0001 44.0119V46.3861H29.6001C29.1583 46.3861 28.8001 46.7443 28.8001 47.1861C28.8001 47.6279 29.1583 47.9861 29.6001 47.9861H47.1999C47.6417 47.9861 47.9999 47.6279 47.9999 47.1861C47.9999 46.7443 47.6417 46.3861 47.1999 46.3861ZM40.509 1.82091C40.659 1.67091 40.8625 1.58653 41.075 1.58653C41.2871 1.58653 41.4906 1.67091 41.641 1.82091L46.1656 6.34586C46.4781 6.65797 46.4784 7.1646 46.166 7.47749C45.8535 7.78999 45.3468 7.78999 45.0343 7.47788L44.4687 6.91226L41.0746 3.51776L40.509 2.95215C40.1965 2.63965 40.1965 2.1334 40.509 1.82091ZM40.509 5.21462L42.7722 7.47788L39.3777 10.8712L37.1153 8.60912L40.509 5.21462ZM19.0131 28.9742C18.8627 28.8242 18.7783 28.6206 18.7783 28.4085C18.7783 28.196 18.8627 27.9925 19.0131 27.8425L19.5787 27.2769L20.7099 28.4097L20.1451 28.9742C19.8275 29.2757 19.3299 29.2753 19.0131 28.9734V28.9742ZM23.5384 27.8425C23.2263 28.1546 22.7197 28.1546 22.4076 27.8425L20.1451 25.5793C19.8326 25.2668 19.8326 24.7605 20.1451 24.448L22.974 21.6192L26.3681 25.0136L23.5384 27.8425ZM31.4587 26.7113C31.1462 27.0234 30.6399 27.0234 30.3274 26.7113L21.2803 17.6602C20.9678 17.3477 20.9678 16.8415 21.2803 16.529C21.4291 16.3778 21.633 16.293 21.8451 16.2946C22.0572 16.2946 22.2607 16.379 22.4107 16.529L31.4618 25.58C31.7739 25.8925 31.7739 26.3988 31.4618 26.7113H31.4587ZM31.4587 23.3176L24.6705 16.5297L25.8017 15.3985L26.9329 16.5297C27.8704 17.4672 29.3899 17.4672 30.3274 16.5297L31.7673 15.0895C32.0704 14.7759 32.0661 14.2766 31.7575 13.9681C31.4489 13.6595 30.9501 13.6552 30.636 13.9587L29.1962 15.3985C28.8798 15.7012 28.3814 15.7012 28.065 15.3985L26.9329 14.2665L30.893 10.3064L32.0243 11.4376C32.2239 11.6505 32.5239 11.7376 32.8063 11.665C33.0891 11.5923 33.3098 11.3716 33.3821 11.0888C33.4547 10.806 33.3672 10.5064 33.1544 10.3064L32.0235 9.17552C32.9606 8.23803 34.4805 8.23803 35.4176 9.17552L38.8121 12.5696C39.6922 13.4552 39.7449 14.8677 38.9328 15.8161C38.2965 15.4071 37.5567 15.1887 36.8 15.1864C36.3582 15.1864 36 15.5446 36 15.9864C36 16.4282 36.3582 16.7864 36.8 16.7864C38.1254 16.7864 39.2 17.861 39.2 19.1864C39.198 19.609 39.0836 20.0231 38.868 20.3864L38.8563 20.409C38.4301 21.1317 37.6567 21.5785 36.8176 21.5863H36.7848C36.7789 21.5859 36.7727 21.5859 36.7664 21.5863C35.4543 21.568 34.4 20.4988 34.4 19.1864C34.4 18.7446 34.0418 18.3864 33.6001 18.3864C33.1583 18.3864 32.8001 18.7446 32.8001 19.1864C32.802 19.95 33.0243 20.6965 33.4403 21.3367L31.4587 23.3176ZM38.1266 22.9441C38.6313 22.7664 39.0953 22.4887 39.4906 22.1281C41.732 25.6898 42.2 30.0882 40.7586 34.0425C40.2578 33.8436 39.7344 33.7093 39.2 33.6425C40.5457 30.1066 40.1476 26.1437 38.1258 22.9465L38.1266 22.9441ZM15.2002 38.3862H18.4002C18.842 38.3862 19.2002 38.028 19.2002 37.5862C19.2002 37.1444 18.842 36.7862 18.4002 36.7862H11.2003C10.7585 36.7862 10.4003 36.428 10.4003 35.9862C10.4003 35.5444 10.7585 35.1862 11.2003 35.1862H25.6001C26.0419 35.1862 26.4001 35.5444 26.4001 35.9862C26.4001 36.428 26.0419 36.7862 25.6001 36.7862H22.4002C21.9584 36.7862 21.6002 37.1444 21.6002 37.5862V38.3862C21.5967 38.5577 21.5795 38.7284 21.5482 38.8967V38.9373C21.2775 40.5858 19.783 41.7475 18.119 41.6029C16.4549 41.4584 15.1827 40.0565 15.2002 38.3862ZM22.0068 41.544C22.3603 41.1404 22.6439 40.6807 22.8459 40.1838C25.7107 41.56 29.0071 41.7326 32.0001 40.6639V42.3287C28.6915 43.3576 25.1142 43.0768 22.0068 41.544Z" fill="#00AAC4"/>
<path d="M38.4 38.3862C38.8418 38.3862 39.2 38.7444 39.2 39.1862C39.2 39.628 39.5582 39.9862 40 39.9862C40.4418 39.9862 40.8 39.628 40.8 39.1862C40.8 37.8608 39.7254 36.7862 38.4 36.7862C37.0746 36.7862 36 37.8608 36 39.1862C36 40.5116 37.0746 41.5862 38.4 41.5862C38.8418 41.5862 39.2 41.228 39.2 40.7862C39.2 40.3444 38.8418 39.9862 38.4 39.9862C37.9582 39.9862 37.6 39.628 37.6 39.1862C37.6 38.7444 37.9582 38.3862 38.4 38.3862Z" fill="#00AAC4"/>
<path d="M10.1459 12.5728C9.85141 12.115 9.34439 11.838 8.79986 11.838C8.25534 11.838 7.74831 12.115 7.45378 12.5728C5.69325 15.3274 4.80029 17.2833 4.80029 18.3864C4.80029 20.5957 6.59129 22.3863 8.80025 22.3863C11.0096 22.3863 12.8002 20.5957 12.8002 18.3864C12.8002 17.2833 11.9076 15.3274 10.1459 12.5728ZM8.80025 20.7864C7.47487 20.7864 6.40028 19.7118 6.40028 18.3864C6.40028 17.809 7.03152 16.2048 8.80025 13.436C10.5713 16.2048 11.2002 17.809 11.2002 18.3864C11.2002 19.7118 10.1256 20.7864 8.80025 20.7864Z" fill="#00AAC4"/>
<path d="M12.8002 31.1862C13.242 31.1862 13.6002 30.828 13.6002 30.3863V24.1543C17.2201 21.793 18.5881 17.1516 16.8271 13.2048C15.0662 9.25755 10.6987 7.17515 6.52332 8.29155C2.34797 9.40794 -0.397314 13.3923 0.0464314 17.6915C0.490568 21.9906 3.9921 25.3301 8.30768 25.5695L12.153 30.8566C12.3037 31.064 12.5444 31.1862 12.8002 31.1862ZM12.0002 27.9265L9.37134 24.3121C9.22252 24.107 8.98502 23.9848 8.7315 23.9824C5.1206 23.9516 2.08977 21.2535 1.64134 17.6704C1.19251 14.0876 3.46398 10.7255 6.95574 9.80481C10.4475 8.88451 14.0815 10.6896 15.4572 14.0282C16.8334 17.3668 15.5268 21.2082 12.4002 23.0152C12.153 23.1578 12.0006 23.4219 12.0002 23.707V27.9265Z" fill="#00AAC4"/>
</g>
<defs>
<clipPath id="clip0_1_994">
<rect width="48" height="48" fill="white"/>
</clipPath>
</defs>
</svg>
