<svg width="18" height="18" viewBox="0 0 18 18" fill="none" xmlns="http://www.w3.org/2000/svg">
<path d="M14.2258 11.1505C13.8573 10.7668 13.4128 10.5616 12.9417 10.5616C12.4744 10.5616 12.0261 10.763 11.6424 11.1467L10.4419 12.3434C10.3432 12.2902 10.2444 12.2408 10.1494 12.1914C10.0127 12.123 9.88348 12.0584 9.77331 11.99C8.6488 11.2758 7.62686 10.3451 6.64672 9.14077C6.17184 8.54053 5.85272 8.03526 5.62098 7.52239C5.9325 7.23746 6.22123 6.94114 6.50235 6.65621C6.60873 6.54984 6.7151 6.43967 6.82147 6.3333C7.61927 5.5355 7.61927 4.50217 6.82147 3.70437L5.78434 2.66724C5.66657 2.54947 5.545 2.4279 5.43103 2.30633C5.20309 2.07079 4.96375 1.82766 4.71681 1.59972C4.34831 1.23501 3.90762 1.04126 3.44414 1.04126C2.98066 1.04126 2.53237 1.23501 2.15247 1.59972C2.14867 1.60351 2.14867 1.60352 2.14487 1.60731L0.853204 2.91038C0.366929 3.39665 0.0896004 3.9893 0.028816 4.67692C-0.0623606 5.78624 0.264355 6.81957 0.515091 7.4958C1.13053 9.15597 2.0499 10.6946 3.42134 12.3434C5.08532 14.3302 7.0874 15.8992 9.37441 17.0047C10.2482 17.4188 11.4145 17.9089 12.7176 17.9925C12.7973 17.9963 12.8809 18.0001 12.9569 18.0001C13.8345 18.0001 14.5715 17.6848 15.1489 17.0579C15.1527 17.0503 15.1603 17.0465 15.1641 17.0389C15.3617 16.7996 15.5896 16.5831 15.829 16.3513C15.9923 16.1956 16.1595 16.0322 16.3228 15.8612C16.6989 15.4699 16.8965 15.0141 16.8965 14.5468C16.8965 14.0757 16.6951 13.6236 16.3114 13.2437L14.2258 11.1505ZM15.5858 15.1508C15.582 15.1508 15.582 15.1546 15.5858 15.1508C15.4377 15.3104 15.2857 15.4547 15.1223 15.6143C14.8754 15.8498 14.6247 16.0968 14.3891 16.3741C14.0054 16.7844 13.5533 16.9782 12.9607 16.9782C12.9037 16.9782 12.8429 16.9782 12.7859 16.9744C11.6576 16.9022 10.6091 16.4615 9.8227 16.0854C7.67245 15.0445 5.78434 13.5666 4.21534 11.6937C2.91987 10.1323 2.0537 8.68869 1.48004 7.13869C1.12673 6.19273 0.997567 5.45572 1.05455 4.7605C1.09254 4.31602 1.2635 3.94751 1.57882 3.63219L2.87428 2.33673C3.06044 2.16197 3.25799 2.067 3.45174 2.067C3.69108 2.067 3.88483 2.21136 4.00639 2.33293C4.01019 2.33673 4.01399 2.34053 4.01779 2.34432C4.24953 2.56087 4.46987 2.78501 4.70162 3.02435C4.81939 3.14592 4.94095 3.26749 5.06252 3.39285L6.09966 4.42999C6.50235 4.83268 6.50235 5.20499 6.09966 5.60768C5.98948 5.71786 5.88311 5.82803 5.77294 5.9344C5.45382 6.26112 5.1499 6.56504 4.81939 6.86136C4.81179 6.86896 4.80419 6.87276 4.80039 6.88036C4.47367 7.20707 4.53446 7.52619 4.60284 7.74273C4.60664 7.75413 4.61044 7.76553 4.61424 7.77693C4.88397 8.43036 5.26387 9.0458 5.84132 9.77901L5.84512 9.78281C6.89365 11.0745 7.99917 12.0812 9.21865 12.8524C9.37442 12.9512 9.53397 13.031 9.68593 13.107C9.8227 13.1753 9.95187 13.2399 10.062 13.3083C10.0772 13.3159 10.0924 13.3273 10.1076 13.3349C10.2368 13.3995 10.3584 13.4299 10.4837 13.4299C10.799 13.4299 10.9966 13.2323 11.0612 13.1677L12.3604 11.8685C12.4896 11.7393 12.6948 11.5835 12.9341 11.5835C13.1696 11.5835 13.3634 11.7317 13.4812 11.8609C13.485 11.8647 13.485 11.8647 13.4888 11.8685L15.582 13.9617C15.9733 14.3492 15.9733 14.7481 15.5858 15.1508Z" fill="#00AAC4"/>
<path d="M9.72782 4.28181C10.7232 4.44897 11.6273 4.92005 12.3492 5.64186C13.071 6.36367 13.5383 7.26784 13.7092 8.26319C13.751 8.51392 13.9675 8.68868 14.2145 8.68868C14.2449 8.68868 14.2715 8.68488 14.3019 8.68108C14.583 8.63549 14.7691 8.36956 14.7235 8.08843C14.5184 6.88414 13.9485 5.78622 13.0786 4.91625C12.2086 4.04627 11.1107 3.47642 9.90638 3.27127C9.62525 3.22568 9.36311 3.41183 9.31373 3.68916C9.26434 3.96649 9.44669 4.23622 9.72782 4.28181Z" fill="#00AAC4"/>
<path d="M17.9792 7.94018C17.6411 5.95709 16.7066 4.15255 15.2705 2.71652C13.8345 1.28049 12.03 0.345932 10.0469 0.00781895C9.76955 -0.0415683 9.50742 0.148383 9.45803 0.425711C9.41245 0.706839 9.5986 0.968972 9.87973 1.01836C11.6501 1.31848 13.2647 2.15807 14.5487 3.43834C15.8328 4.72241 16.6686 6.33699 16.9687 8.10734C17.0105 8.35807 17.227 8.53283 17.474 8.53283C17.5044 8.53283 17.531 8.52903 17.5614 8.52523C17.8387 8.48344 18.0286 8.21751 17.9792 7.94018Z" fill="#00AAC4"/>
</svg>
