<svg width="38" height="38" viewBox="0 0 38 38" fill="none" xmlns="http://www.w3.org/2000/svg">
<g opacity="0.9" clip-path="url(#clip0_1_1343)">
<path d="M24.6447 23.0676C24.2742 23.0676 23.9433 22.8063 23.8689 22.4295C23.785 22.0004 24.0636 21.584 24.4927 21.5001L31.1126 20.1986C31.442 20.1337 31.5971 19.9072 31.6605 19.779C31.7761 19.5431 31.7713 19.2676 31.6494 19.0253C28.8279 13.4362 24.564 9.17225 18.9764 6.35075C18.7325 6.22883 18.4586 6.22566 18.2227 6.33966C18.0929 6.403 17.868 6.55816 17.8031 6.8875L16.5016 13.5074C16.4161 13.9349 16.006 14.2152 15.5722 14.1312C15.1415 14.0473 14.8629 13.6293 14.9468 13.2002L16.2483 6.58033C16.3924 5.84883 16.8579 5.24241 17.5276 4.91625C18.2148 4.58216 19.0033 4.5885 19.6905 4.93683C25.5884 7.9135 30.0866 12.4133 33.0633 18.3112C33.4116 19 33.418 19.7869 33.0839 20.4725C32.7577 21.1407 32.1513 21.6077 31.4198 21.7518L24.7999 23.0533C24.7476 23.0628 24.6954 23.0676 24.6447 23.0676Z" fill="white"/>
<path d="M37.2084 11.0833C36.7714 11.0833 36.4168 10.7287 36.4168 10.2917C36.4168 5.48942 32.5107 1.58333 27.7084 1.58333C27.2714 1.58333 26.9167 1.22867 26.9167 0.791667C26.9167 0.354667 27.2714 0 27.7084 0C33.3831 0 38.0001 4.617 38.0001 10.2917C38.0001 10.7287 37.6454 11.0833 37.2084 11.0833Z" fill="white"/>
<path d="M32.4584 11.0833C32.0214 11.0833 31.6667 10.7287 31.6667 10.2917C31.6667 8.10983 29.8902 6.33333 27.7084 6.33333C27.2714 6.33333 26.9167 5.97867 26.9167 5.54167C26.9167 5.10467 27.2714 4.75 27.7084 4.75C30.7642 4.75 33.2501 7.23583 33.2501 10.2917C33.2501 10.7287 32.8954 11.0833 32.4584 11.0833Z" fill="white"/>
<path d="M7.12508 34.8333C4.94325 34.8333 3.16675 33.0568 3.16675 30.875C3.16675 30.0469 3.42008 29.2537 3.89983 28.5792L15.0798 12.8947C15.2143 12.7047 15.4265 12.5843 15.6593 12.5653C15.892 12.5463 16.12 12.6302 16.2847 12.7949L25.2068 21.717C25.3714 21.8817 25.4553 22.1113 25.4363 22.3424C25.4173 22.5736 25.297 22.7858 25.107 22.9219L9.42092 34.1003C8.74642 34.58 7.95317 34.8333 7.12508 34.8333ZM15.8271 14.5762L5.18866 29.4975C4.90208 29.9013 4.75008 30.3778 4.75008 30.875C4.75008 32.1844 5.81567 33.25 7.12508 33.25C7.62225 33.25 8.09883 33.098 8.50258 32.8114L23.4255 22.1746L15.8271 14.5762Z" fill="white"/>
<path d="M0.791575 38C0.588908 38 0.386241 37.9224 0.231074 37.7688C-0.0776758 37.4601 -0.0776758 36.9582 0.231074 36.6494L4.18941 32.6911C4.49816 32.3823 5.00008 32.3823 5.30883 32.6911C5.61758 32.9998 5.61758 33.5018 5.30883 33.8105L1.35049 37.7688C1.19691 37.9224 0.994241 38 0.791575 38Z" fill="white"/>
<path d="M11.8749 23.75C11.6722 23.75 11.4696 23.6724 11.3144 23.5188L9.73107 21.9355C9.42232 21.6268 9.42232 21.1248 9.73107 20.8161C10.0398 20.5073 10.5417 20.5073 10.8505 20.8161L12.4338 22.3994C12.7426 22.7082 12.7426 23.2101 12.4338 23.5188C12.2802 23.6724 12.0776 23.75 11.8749 23.75Z" fill="white"/>
</g>
<defs>
<clipPath id="clip0_1_1343">
<rect width="38" height="38" fill="white"/>
</clipPath>
</defs>
</svg>
