<svg width="18" height="18" viewBox="0 0 18 18" fill="none" xmlns="http://www.w3.org/2000/svg">
<path d="M17.624 7.96986L11.4887 1.8345C10.9474 1.29312 10.0451 1.29312 9.50379 1.8345L8.24063 3.09766C8.00002 3.33827 7.81959 3.69915 7.81959 4.06006C7.81959 4.42098 7.9399 4.78185 8.24063 5.02246L9.92482 6.70666H1.44362C0.661676 6.70666 0 7.36834 0 8.15028V9.89463C0 10.6164 0.661641 11.2179 1.44362 11.2179H9.86467L8.24059 12.842C7.99998 13.0826 7.81956 13.4435 7.81956 13.8646C7.81956 14.2255 7.93986 14.5864 8.24059 14.8871L9.50376 16.1503C9.74436 16.3909 10.1052 16.5714 10.4662 16.5714C10.8271 16.5714 11.188 16.4511 11.4286 16.1503L17.5639 10.0149C17.8647 9.71417 17.985 9.35326 17.985 8.99238C18.0451 8.6315 17.9248 8.27062 17.624 7.96986ZM16.7819 9.17284L10.6466 15.3082C10.5263 15.4285 10.4662 15.4285 10.3459 15.3082L9.08269 14.045C9.02254 13.9849 9.02254 13.9247 9.02254 13.8646C9.02254 13.8045 9.02254 13.7443 9.08269 13.6842L11.7293 11.0376C11.9097 10.8572 11.9699 10.6165 11.8496 10.3759C11.7293 10.1353 11.5488 10.015 11.3083 10.015H1.44362C1.32332 10.015 1.20301 9.95485 1.20301 9.8947V8.15035C1.20301 8.03005 1.32332 7.90974 1.44362 7.90974H11.4286C11.6692 7.90974 11.9098 7.78944 11.9699 7.54883C12.0301 7.30822 12.0301 7.06761 11.8496 6.88715L9.14288 4.1804C9.08272 4.12025 9.08272 4.0601 9.08272 4.0601C9.08272 3.99994 9.08272 3.99994 9.14288 3.93979L10.406 2.67666C10.4662 2.61651 10.5865 2.55636 10.7068 2.67666L16.8421 8.81196C16.9022 8.87211 16.9022 8.93226 16.9022 8.99238C16.8421 9.05257 16.8421 9.11272 16.7819 9.17284Z" fill="#00AAC4"/>
</svg>
