<svg width="45" height="45" viewBox="0 0 45 45" fill="none" xmlns="http://www.w3.org/2000/svg">
<g clip-path="url(#clip0_1_982)">
<path d="M41.2368 0C39.1666 0.00256348 37.4894 1.67981 37.4868 3.75V44.25C37.4868 44.6642 37.8226 45 38.2368 45C41.963 44.996 44.9828 41.9762 44.9868 38.25V30.75C44.9857 29.7968 44.3851 28.9471 43.4868 28.6282V27H44.2368C44.651 27 44.9868 26.6642 44.9868 26.25V3.75C44.9843 1.67981 43.307 0.00256348 41.2368 0ZM41.2368 1.5C42.4794 1.5 43.4868 2.50745 43.4868 3.75V16.5H41.2368C40.8226 16.5 40.4868 16.8358 40.4868 17.25C40.4868 17.6642 40.8226 18 41.2368 18H43.4868V19.5H38.9868V3.75C38.9868 2.50745 39.9943 1.5 41.2368 1.5ZM43.4868 22.5H38.9868V21H43.4868V22.5ZM42.7368 30C43.151 30 43.4868 30.3358 43.4868 30.75V38.25C43.4835 40.8585 41.5682 43.0704 38.9868 43.4469V27H41.9868V29.25C41.9868 29.6642 42.3226 30 42.7368 30ZM42.7368 25.5H38.9868V24H43.4868V25.5H42.7368Z" fill="#00AAC4"/>
<path d="M41.2368 33C40.8226 33 40.4868 33.3358 40.4868 33.75V38.25C40.4868 38.6642 40.8226 39 41.2368 39C41.651 39 41.9868 38.6642 41.9868 38.25V33.75C41.9868 33.3358 41.651 33 41.2368 33Z" fill="#00AAC4"/>
<path d="M27.4971 34.5674C26.9012 34.6538 26.3252 34.8449 25.796 35.1313L18.8501 16.0499C19.0925 15.9613 19.3071 15.81 19.4726 15.6119C19.5946 15.5251 19.6872 15.4035 19.7389 15.2633L22.7389 7.01695C23.7269 4.29271 22.3232 1.28282 19.6008 0.288558C19.4137 0.221175 19.2079 0.23033 19.0273 0.31346C18.8468 0.397688 18.7076 0.549666 18.6395 0.736433L16.7554 5.91136L14.8716 0.736433C14.8038 0.5493 14.6643 0.39659 14.4841 0.311995C14.3036 0.227767 14.097 0.218611 13.9099 0.28636C11.1878 1.28062 9.78416 4.29051 10.7718 7.01475L14.3607 16.875L7.72019 35.1313C7.19065 34.8449 6.61497 34.6538 6.01914 34.5674C3.30589 34.1656 0.740212 35.9205 0.131204 38.5949C-0.477805 41.2694 1.07456 43.9621 3.69407 44.7751C4.18003 44.9245 4.68577 45.0003 5.19407 45C7.46458 44.9703 9.47471 43.5263 10.2273 41.3844L11.9627 36.6156L14.078 37.3861C14.4643 37.5183 14.8858 37.3169 15.0254 36.9331C15.1653 36.5489 14.9719 36.1237 14.591 35.9769L12.4758 35.2064L16.751 23.454L21.0257 35.2064L18.9123 35.9769C18.5344 36.1256 18.3436 36.5489 18.4824 36.9309C18.6212 37.3125 19.039 37.5146 19.4247 37.3861L21.5395 36.6163L23.2743 41.3844C24.0287 43.5289 26.0432 44.9736 28.3166 45C28.8249 45.0003 29.3307 44.9245 29.8166 44.7751C32.4365 43.9621 33.9889 41.2694 33.3795 38.5949C32.7705 35.9205 30.2052 34.1656 27.4916 34.5674H27.4971ZM19.7689 2.02513C21.2857 2.95897 21.938 4.82994 21.3312 6.50462L19.1518 12.4918L17.5555 8.10752L19.7689 2.02513ZM8.82176 40.875C8.14866 42.7979 6.10484 43.875 4.13828 43.3425C2.26512 42.7631 1.1544 40.8387 1.59019 38.9271C2.02561 37.0155 3.86033 35.7619 5.79942 36.0509C6.46995 36.1494 7.1002 36.4314 7.62058 36.8653C7.80845 37.0206 8.05967 37.0744 8.29478 37.0107C8.52989 36.9466 8.71885 36.7727 8.80235 36.5438L15.1616 19.0686L15.9618 21.2647L8.82176 40.875ZM31.7224 41.2371C31.2881 42.2497 30.4304 43.0199 29.3772 43.3432C27.4103 43.8753 25.3661 42.7983 24.6926 40.875L22.7052 35.4126V35.4023L22.7015 35.3917L12.1843 6.50608C11.5764 4.83104 12.229 2.95933 13.7466 2.02513L18.337 14.64C17.5588 14.9238 17.1578 15.7848 17.4416 16.563L24.7168 36.5423C24.8003 36.7708 24.9892 36.9448 25.224 37.0085C25.4587 37.0726 25.7099 37.0188 25.8978 36.8639C26.4186 36.4295 27.0488 36.1479 27.7197 36.0494C29.0648 35.8465 30.4147 36.3885 31.2463 37.4652C32.078 38.5418 32.2615 39.9843 31.7253 41.235L31.7224 41.2371Z" fill="#00AAC4"/>
<path d="M29.4294 38.5397C29.0398 38.6803 28.8384 39.1106 28.9797 39.5003C29.1215 39.8896 28.9208 40.3202 28.5315 40.4623C28.1422 40.604 27.7115 40.4033 27.5695 40.0141C27.5013 39.8269 27.5105 39.62 27.5947 39.4395C27.6793 39.2589 27.832 39.1194 28.0195 39.0517C28.2762 38.9638 28.4656 38.744 28.5146 38.4771C28.5634 38.2101 28.4641 37.9376 28.255 37.7644C28.0459 37.5916 27.7599 37.5447 27.5065 37.6425C26.339 38.0677 25.7366 39.3585 26.1617 40.5264C26.5865 41.6942 27.8778 42.2963 29.0456 41.8711C30.2131 41.4463 30.8152 40.1551 30.3904 38.9872C30.2483 38.5987 29.8184 38.3983 29.4294 38.5397Z" fill="#00AAC4"/>
<path d="M6.90414 39.5655C6.71701 39.4973 6.51047 39.5069 6.32993 39.5911C6.14975 39.6757 6.01022 39.8284 5.94247 40.0155C5.80148 40.4052 5.37119 40.6066 4.9819 40.4656C4.59225 40.3243 4.39157 39.8936 4.53293 39.5043C4.67429 39.115 5.10458 38.914 5.49387 39.0557C5.74619 39.1491 6.02927 39.1004 6.23581 38.9283C6.44199 38.7558 6.5405 38.4859 6.49326 38.2211C6.44638 37.9563 6.26108 37.737 6.00766 37.6462C4.84018 37.2213 3.54892 37.8234 3.12375 38.9909C2.69894 40.1587 3.30099 41.45 4.46884 41.8748C5.63632 42.3 6.92758 41.6979 7.35239 40.5301C7.4216 40.3426 7.41318 40.1357 7.32895 39.9544C7.24472 39.7735 7.09164 39.6336 6.90414 39.5655Z" fill="#00AAC4"/>
</g>
<defs>
<clipPath id="clip0_1_982">
<rect width="45" height="45" fill="white"/>
</clipPath>
</defs>
</svg>
