<svg width="48" height="48" viewBox="0 0 48 48" fill="none" xmlns="http://www.w3.org/2000/svg">
<path d="M44 16C41.7918 16.0027 40.0027 17.7918 40 20V20.8H36.8C35.0328 20.8 33.6 22.2328 33.6 24H31.1199C30.7371 22.1391 29.1 20.8023 27.2 20.8H17.6C15.7 20.8023 14.0629 22.1391 13.6801 24H12C10.6746 24 9.6 25.0746 9.6 26.4V27.2H8V24.8C8 22.591 6.20898 20.8 4 20.8C1.79102 20.8 0 22.591 0 24.8V32.8C0 34.1254 1.07461 35.2 2.4 35.2H7.2V40.0207C5.82266 41.0539 5.26094 42.8523 5.80508 44.4855C6.34961 46.1191 7.87813 47.2207 9.6 47.2207C11.3219 47.2207 12.8504 46.1191 13.3949 44.4855C13.9391 42.8523 13.3773 41.0539 12 40.0207V35.2H14.4V36C14.4 37.3254 15.4746 38.4 16.8 38.4H32C33.3254 38.4 34.4 37.3254 34.4 36V35.2H36.8V40.0207C35.4227 41.0539 34.8609 42.8523 35.4051 44.4855C35.9496 46.1191 37.4781 47.2207 39.2 47.2207C40.9219 47.2207 42.4504 46.1191 42.9949 44.4855C43.5391 42.8523 42.9773 41.0539 41.6 40.0207V35.2H45.6C46.9254 35.2 48 34.1254 48 32.8V20C47.9973 17.7918 46.2082 16.0027 44 16ZM35.2 24C35.2 23.1164 35.9164 22.4 36.8 22.4H40V27.2H35.2V24ZM33.6 27.2H31.2V25.6H33.6V27.2ZM15.2 28.8H29.6V30.4H15.2V28.8ZM15.2 27.2V25.6H29.6V27.2H15.2ZM17.6 22.4H27.2C28.2133 22.4043 29.1148 23.0445 29.4527 24H15.3473C15.6852 23.0445 16.5867 22.4043 17.6 22.4ZM11.2 26.4C11.2 25.9582 11.5582 25.6 12 25.6H13.6V27.2H11.2V26.4ZM9.6 45.6C8.55273 45.6016 7.62578 44.9234 7.31094 43.9246C6.99609 42.9258 7.36602 41.8387 8.22461 41.2391L8.40234 41.1352C8.58008 41.032 8.77031 40.9516 8.96797 40.8953C8.98086 40.891 8.99375 40.8863 9.00703 40.8832C9.39531 40.7777 9.80469 40.7777 10.193 40.8832C10.2063 40.8832 10.2191 40.891 10.232 40.8953C10.4297 40.9516 10.6199 41.032 10.7977 41.1352L10.9754 41.2391C11.834 41.8387 12.2039 42.9258 11.8891 43.9246C11.5742 44.9234 10.6473 45.6016 9.6 45.6ZM10.4 39.2801C9.87227 39.1723 9.32773 39.1723 8.8 39.2801V35.2H10.4V39.2801ZM32.8 36C32.8 36.4418 32.4418 36.8 32 36.8H16.8C16.3582 36.8 16 36.4418 16 36V35.2H32.8V36ZM39.2 45.6C38.1527 45.6016 37.2258 44.9234 36.9109 43.9246C36.5961 42.9258 36.966 41.8387 37.8246 41.2391L38.0023 41.1352C38.1801 41.032 38.3703 40.9516 38.568 40.8953C38.5809 40.891 38.5938 40.8863 38.607 40.8832C38.9953 40.7777 39.4047 40.7777 39.793 40.8832C39.8063 40.8832 39.8191 40.891 39.832 40.8953C40.0297 40.9516 40.2199 41.032 40.3977 41.1352L40.5754 41.2391C41.434 41.8387 41.8039 42.9258 41.4891 43.9246C41.1742 44.9234 40.2473 45.6016 39.2 45.6ZM39.2 39.2C38.9313 39.1996 38.6633 39.2266 38.4 39.2801V35.2H40V39.2801C39.7367 39.2266 39.4688 39.1996 39.2 39.2ZM46.4 32.8C46.4 33.2418 46.0418 33.6 45.6 33.6H2.4C1.9582 33.6 1.6 33.2418 1.6 32.8V24.8C1.6 23.4746 2.67461 22.4 4 22.4C5.32539 22.4 6.4 23.4746 6.4 24.8V31.2C6.4 31.6418 6.7582 32 7.2 32C7.6418 32 8 31.6418 8 31.2V28.8H13.6V30.4H12C11.5582 30.4 11.2 30.7582 11.2 31.2C11.2 31.6418 11.5582 32 12 32H32.8C33.2418 32 33.6 31.6418 33.6 31.2C33.6 30.7582 33.2418 30.4 32.8 30.4H31.2V28.8H40V31.2C40 31.6418 40.3582 32 40.8 32C41.2418 32 41.6 31.6418 41.6 31.2V20C41.6 18.6746 42.6746 17.6 44 17.6C45.3254 17.6 46.4 18.6746 46.4 20V32.8Z" fill="#00AAC4"/>
<path d="M10.4 43.2C10.4 43.6418 10.0418 44 9.60005 44C9.15825 44 8.80005 43.6418 8.80005 43.2C8.80005 42.7582 9.15825 42.4 9.60005 42.4C10.0418 42.4 10.4 42.7582 10.4 43.2Z" fill="#00AAC4"/>
<path d="M39.9999 43.2C39.9999 43.6418 39.6417 44 39.1999 44C38.7581 44 38.3999 43.6418 38.3999 43.2C38.3999 42.7582 38.7581 42.4 39.1999 42.4C39.6417 42.4 39.9999 42.7582 39.9999 43.2Z" fill="#00AAC4"/>
<path d="M28.0001 17.6H28.8001V18.4C28.8001 18.8418 29.1583 19.2 29.6001 19.2C30.0419 19.2 30.4001 18.8418 30.4001 18.4V17.6H31.2001C32.5255 17.6 33.6001 16.5254 33.6001 15.2V10.4C33.6001 9.07463 32.5255 8.00002 31.2001 8.00002H30.4001V5.60002H36.8001V18.4C36.8001 18.8418 37.1583 19.2 37.6001 19.2C38.0419 19.2 38.4001 18.8418 38.4001 18.4V4.80002C38.4001 4.35823 38.0419 4.00002 37.6001 4.00002H29.6001C29.1583 4.00002 28.8001 3.64182 28.8001 3.20002C28.8001 2.75823 29.1583 2.40002 29.6001 2.40002H39.2001C39.6419 2.40002 40.0001 2.75823 40.0001 3.20002V14.4C40.0001 14.8418 40.3583 15.2 40.8001 15.2C41.2419 15.2 41.6001 14.8418 41.6001 14.4V3.20002C41.6001 1.87463 40.5255 0.800023 39.2001 0.800023H29.6001C28.4325 0.797679 27.4337 1.63791 27.2356 2.78869C27.038 3.93948 27.6989 5.06487 28.8001 5.45276V8.00002H28.0001C26.6747 8.00002 25.6001 9.07463 25.6001 10.4V15.2C25.6001 16.5254 26.6747 17.6 28.0001 17.6ZM32.0001 15.2C32.0001 15.6418 31.6419 16 31.2001 16H28.0001C27.5583 16 27.2001 15.6418 27.2001 15.2V13.6H32.0001V15.2ZM27.2001 10.4C27.2001 9.95823 27.5583 9.60002 28.0001 9.60002H31.2001C31.6419 9.60002 32.0001 9.95823 32.0001 10.4V12H27.2001V10.4Z" fill="#00AAC4"/>
<path d="M4.79995 14.4H7.19995V16.8C7.19995 17.6836 7.91636 18.4 8.79995 18.4H12C12.8835 18.4 13.6 17.6836 13.6 16.8V14.4H16C16.8835 14.4 17.6 13.6836 17.6 12.8V9.6C17.6 8.71641 16.8835 8 16 8H13.6V5.6C13.6 4.71641 12.8835 4 12 4H8.79995C7.91636 4 7.19995 4.71641 7.19995 5.6V8H4.79995C3.91636 8 3.19995 8.71641 3.19995 9.6V12.8C3.19995 13.6836 3.91636 14.4 4.79995 14.4ZM4.79995 9.6H7.99995C8.44175 9.6 8.79995 9.2418 8.79995 8.8V5.6H12V8.8C12 9.2418 12.3582 9.6 12.8 9.6H16V12.8H12.8C12.3582 12.8 12 13.1582 12 13.6V16.8H8.79995V13.6C8.79995 13.1582 8.44175 12.8 7.99995 12.8H4.79995V9.6Z" fill="#00AAC4"/>
</svg>
