<svg width="40" height="40" viewBox="0 0 40 40" fill="none" xmlns="http://www.w3.org/2000/svg">
<g opacity="0.9" clip-path="url(#clip0_1_1337)">
<path d="M37.2874 23.0596H7.22011C6.89676 23.0596 6.6346 23.3218 6.6346 23.6451C6.6346 23.9685 6.89676 24.2306 7.22011 24.2306H37.2874C38.1374 24.2306 38.829 24.9221 38.829 25.7722V26.1125C38.829 26.9625 38.1375 27.6541 37.2874 27.6541H36.8783H3.55888H2.71262C1.86262 27.6541 1.17102 26.9626 1.17102 26.1125V25.7722C1.17102 24.9222 1.86254 24.2306 2.71262 24.2306H9.87815C10.2015 24.2306 10.4637 23.9685 10.4637 23.6451C10.4637 23.3218 10.2015 23.0596 9.87815 23.0596H2.71262C1.21684 23.0596 0 24.2765 0 25.7722V26.1125C0 27.6082 1.21684 28.8251 2.71262 28.8251H2.97345V37.7973C2.97345 38.94 3.90308 39.8696 5.04576 39.8696H17.0987C17.4221 39.8696 17.6842 39.6075 17.6842 39.2841C17.6842 38.9608 17.4221 38.6986 17.0987 38.6986H5.04576C4.54878 38.6986 4.14446 38.2943 4.14446 37.7973V28.8251H36.2929V37.7973C36.2929 38.2943 35.8886 38.6986 35.3916 38.6986H14.4408C14.1174 38.6986 13.8553 38.9608 13.8553 39.2841C13.8553 39.6075 14.1174 39.8696 14.4408 39.8696H35.3915C36.5342 39.8696 37.4638 38.94 37.4638 37.7973V28.8187C38.8775 28.7275 39.9999 27.5489 39.9999 26.1125V25.7722C40 24.2765 38.7831 23.0596 37.2874 23.0596Z" fill="white"/>
<path d="M12.2747 10.0521V11.0564C12.2747 12.2538 13.2488 13.2278 14.4462 13.2278C15.6435 13.2278 16.6176 12.2537 16.6176 11.0564V10.056H17.7846V11.0564C17.7846 12.2538 18.7587 13.2278 19.956 13.2278C21.1534 13.2278 22.1275 12.2537 22.1275 11.0564V10.056H23.2945V11.0564C23.2945 12.2538 24.2686 13.2278 25.4659 13.2278C26.6632 13.2278 27.6374 12.2537 27.6374 11.0564V10.0521C28.7762 9.98669 29.6827 9.0398 29.6827 7.88487C29.6827 6.6877 28.7088 5.71372 27.5115 5.71372H27.0457C27.036 4.52475 26.0662 3.56038 24.875 3.56038H20.5416V0.715819C20.5416 0.392462 20.2795 0.13031 19.9561 0.13031C19.6328 0.13031 19.3706 0.392462 19.3706 0.715819V3.56038H15.0372C13.8461 3.56038 12.8762 4.52475 12.8665 5.71372H12.4007C11.2035 5.71372 10.2295 6.6877 10.2295 7.88487C10.2294 9.0398 11.1359 9.98669 12.2747 10.0521ZM15.4466 11.0564C15.4466 11.6081 14.9978 12.0568 14.4462 12.0568C13.8945 12.0568 13.4457 11.608 13.4457 11.0564V10.056H15.4466V11.0564ZM20.9565 11.0564C20.9565 11.6081 20.5077 12.0568 19.956 12.0568C19.4044 12.0568 18.9556 11.608 18.9556 11.0564V10.056H20.9565V11.0564ZM26.4663 11.0564C26.4663 11.6081 26.0175 12.0568 25.4659 12.0568C24.9143 12.0568 24.4655 11.608 24.4655 11.0564V10.056H26.4663V11.0564ZM15.0371 4.73139H24.875C25.4205 4.73139 25.8646 5.17053 25.8742 5.71372H14.0379C14.0476 5.17053 14.4917 4.73139 15.0371 4.73139ZM12.4006 6.88474H27.5115C28.063 6.88474 28.5117 7.33339 28.5117 7.88487C28.5117 8.43634 28.0631 8.88507 27.5115 8.88507H12.4006C11.8491 8.88507 11.4004 8.43641 11.4004 7.88487C11.4004 7.33339 11.8491 6.88474 12.4006 6.88474Z" fill="white"/>
<path d="M14.7803 14.8566C14.457 14.8566 14.1948 15.1187 14.1948 15.4421C14.1948 18.6431 16.799 21.2473 20 21.2473C23.201 21.2473 25.8052 18.6431 25.8052 15.4421C25.8052 15.1187 25.5431 14.8566 25.2197 14.8566C24.8964 14.8566 24.6342 15.1187 24.6342 15.4421C24.6342 17.9974 22.5553 20.0763 20 20.0763C17.4447 20.0763 15.3658 17.9974 15.3658 15.4421C15.3658 15.1187 15.1037 14.8566 14.7803 14.8566Z" fill="white"/>
<path d="M20 18.8556C21.953 18.8556 23.5418 17.2668 23.5418 15.3139C23.5418 14.9905 23.2797 14.7284 22.9563 14.7284C22.6329 14.7284 22.3708 14.9905 22.3708 15.3139C22.3708 16.6211 21.3073 17.6846 20 17.6846C18.6928 17.6846 17.6293 16.6211 17.6293 15.3139C17.6293 14.9905 17.3671 14.7284 17.0438 14.7284C16.7204 14.7284 16.4583 14.9905 16.4583 15.3139C16.4582 17.2668 18.047 18.8556 20 18.8556Z" fill="white"/>
</g>
<defs>
<clipPath id="clip0_1_1337">
<rect width="40" height="40" fill="white"/>
</clipPath>
</defs>
</svg>
