<svg width="42" height="42" viewBox="0 0 42 42" fill="none" xmlns="http://www.w3.org/2000/svg">
<g opacity="0.9">
<path d="M35.4375 40.0312H34.6377L33.4491 35.2784C33.4136 35.1364 33.3317 35.0103 33.2164 34.9203C33.101 34.8302 32.9589 34.7813 32.8125 34.7812H31.482C34.3711 32.7737 36.6234 29.9791 37.9713 26.7294C39.3192 23.4797 39.7061 19.9115 39.0861 16.4484C38.4661 12.9853 36.8652 9.77292 34.4735 7.19273C32.0819 4.61254 29 2.77297 25.5938 1.89246V1.3125C25.5938 1.13845 25.5247 0.971532 25.4016 0.848461C25.2785 0.72539 25.1116 0.65625 24.9375 0.65625H17.0625C16.8885 0.65625 16.7216 0.72539 16.5985 0.848461C16.4754 0.971532 16.4063 1.13845 16.4063 1.3125V1.89246C13.0004 2.77332 9.91881 4.61307 7.52744 7.19326C5.13606 9.77346 3.53536 12.9857 2.91538 16.4486C2.2954 19.9115 2.6822 23.4796 4.02984 26.7292C5.37748 29.9788 7.62936 32.7734 10.5181 34.7812H9.18755C9.0412 34.7813 8.89907 34.8302 8.78373 34.9203C8.66839 35.0103 8.58647 35.1364 8.55098 35.2784L7.36235 40.0312H3.93755C3.7635 40.0312 3.59658 40.1004 3.47351 40.2235C3.35044 40.3465 3.2813 40.5135 3.2813 40.6875C3.2813 40.8615 3.35044 41.0285 3.47351 41.1515C3.59658 41.2746 3.7635 41.3438 3.93755 41.3438H35.4375C35.6116 41.3438 35.7785 41.2746 35.9016 41.1515C36.0247 41.0285 36.0938 40.8615 36.0938 40.6875C36.0938 40.5135 36.0247 40.3465 35.9016 40.2235C35.7785 40.1004 35.6116 40.0312 35.4375 40.0312ZM25.5938 3.25172C29.3472 4.30167 32.6281 6.60472 34.891 9.77794C37.154 12.9512 38.2626 16.8034 38.0325 20.694C37.8025 24.5847 36.2477 28.2794 33.6266 31.1639C31.0055 34.0483 27.476 35.9487 23.625 36.549V32.1562H28.875C29.0491 32.1562 29.216 32.0871 29.3391 31.964C29.4622 31.841 29.5313 31.674 29.5313 31.5V30.5099C31.0929 29.2754 32.3713 27.72 33.2801 25.9489C34.4458 23.6588 34.9488 21.0887 34.7322 18.5281C34.5157 15.9675 33.5883 13.5183 32.0546 11.4565C30.4158 9.26795 28.1687 7.61058 25.5938 6.69129V3.25172ZM17.7188 1.96875H24.2813V7.21875H17.7188V1.96875ZM16.4391 8.08008C16.4824 8.21126 16.566 8.32546 16.6779 8.40645C16.7898 8.48744 16.9244 8.53111 17.0625 8.53125H24.9375C25.0757 8.53111 25.2103 8.48744 25.3222 8.40645C25.4341 8.32546 25.5177 8.21126 25.561 8.08008C27.7239 8.93818 29.6072 10.3782 31.0021 12.2407C32.3895 14.1061 33.2284 16.3218 33.4244 18.6382C33.6203 20.9547 33.1655 23.2799 32.1112 25.3518C31.4535 26.6333 30.5809 27.7925 29.5313 28.779V27.8906C29.5306 27.2817 29.2884 26.6978 28.8578 26.2672C28.4272 25.8366 27.8434 25.5944 27.2344 25.5938H14.7657C14.1567 25.5944 13.5729 25.8366 13.1423 26.2672C12.7117 26.6978 12.4695 27.2817 12.4688 27.8906V28.779C11.4192 27.7925 10.5466 26.6333 9.88891 25.3518C8.83458 23.2799 8.37976 20.9547 8.57571 18.6382C8.77166 16.3218 9.61059 14.1061 10.998 12.2407C12.3929 10.3782 14.2761 8.93818 16.4391 8.08008ZM18.375 40.0312H8.71587L9.70024 36.0938H12.719C14.4949 36.9911 16.4054 37.5926 18.375 37.8746V40.0312ZM18.375 36.549C14.5242 35.9485 10.9949 34.0481 8.37393 31.1637C5.75294 28.2792 4.19819 24.5846 3.96815 20.694C3.73811 16.8034 4.84666 12.9513 7.10948 9.77811C9.37229 6.60491 12.6531 4.30181 16.4063 3.25172V6.69129C13.8314 7.61058 11.5843 9.26795 9.94551 11.4565C8.41178 13.5183 7.4844 15.9675 7.26786 18.5281C7.05133 21.0887 7.55426 23.6588 8.71997 25.9489C9.62877 27.72 10.9072 29.2754 12.4688 30.5099V31.5C12.4688 31.674 12.5379 31.841 12.661 31.964C12.7841 32.0871 12.951 32.1562 13.125 32.1562H18.375V36.549ZM22.3125 40.0312H19.6875V32.1562H22.3125V40.0312ZM13.7813 30.8438V27.8906C13.7815 27.6296 13.8853 27.3794 14.0699 27.1948C14.2544 27.0102 14.5047 26.9065 14.7657 26.9062H27.2344C27.4954 26.9065 27.7457 27.0102 27.9302 27.1948C28.1148 27.3794 28.2186 27.6296 28.2188 27.8906V30.8438H13.7813ZM23.625 40.0312V37.8746C25.5947 37.5926 27.5052 36.9911 29.2811 36.0938H32.2998L33.2842 40.0312H23.625Z" fill="white"/>
</g>
</svg>
